<?xml version="1.0" encoding="UTF-8" standalone="no"?>
<!-- Created with Inkscape (http://www.inkscape.org/) -->

<svg
   xmlns:ns0="http://www.iki.fi/pav/software/textext/"
   xmlns:dc="http://purl.org/dc/elements/1.1/"
   xmlns:cc="http://creativecommons.org/ns#"
   xmlns:rdf="http://www.w3.org/1999/02/22-rdf-syntax-ns#"
   xmlns:svg="http://www.w3.org/2000/svg"
   xmlns="http://www.w3.org/2000/svg"
   xmlns:xlink="http://www.w3.org/1999/xlink"
   xmlns:sodipodi="http://sodipodi.sourceforge.net/DTD/sodipodi-0.dtd"
   xmlns:inkscape="http://www.inkscape.org/namespaces/inkscape"
   width="437.69754pt"
   height="180.40321pt"
   viewBox="0 0 154.40997 63.642244"
   version="1.1"
   id="svg8"
   inkscape:version="0.92.3 (2405546, 2018-03-11)"
   sodipodi:docname="ANN_super1.svg">
  <sodipodi:namedview
     id="base"
     pagecolor="#ffffff"
     bordercolor="#666666"
     borderopacity="1.0"
     inkscape:pageopacity="0.0"
     inkscape:pageshadow="2"
     inkscape:zoom="2.8284271"
     inkscape:cx="291.33774"
     inkscape:cy="135.34578"
     inkscape:document-units="mm"
     inkscape:current-layer="layer1"
     showgrid="false"
     inkscape:snap-bbox="true"
     inkscape:bbox-paths="true"
     inkscape:bbox-nodes="true"
     inkscape:snap-bbox-edge-midpoints="true"
     inkscape:snap-bbox-midpoints="true"
     inkscape:snap-nodes="true"
     inkscape:object-paths="true"
     inkscape:snap-intersection-paths="true"
     inkscape:snap-smooth-nodes="true"
     inkscape:snap-midpoints="true"
     inkscape:snap-object-midpoints="true"
     inkscape:snap-center="true"
     inkscape:window-width="3200"
     inkscape:window-height="1689"
     inkscape:window-x="0"
     inkscape:window-y="55"
     inkscape:window-maximized="1"
     units="pt"
     fit-margin-top="10"
     fit-margin-left="10"
     fit-margin-right="10"
     fit-margin-bottom="10"
     inkscape:snap-global="true"
     showguides="true"
     inkscape:guide-bbox="true" />
  <defs
     id="defs2">
    <defs
       id="defs1133">
      <g
         id="g1131">
        <symbol
           style="overflow:visible"
           overflow="visible"
           id="textext-d004b058-0">
          <path
             inkscape:connector-curvature="0"
             style="stroke:none"
             d=""
             id="path1092" />
        </symbol>
        <symbol
           style="overflow:visible"
           overflow="visible"
           id="textext-d004b058-1">
          <path
             inkscape:connector-curvature="0"
             style="stroke:none"
             d="m 5.359375,-5.9375 c -0.140625,0.140625 -0.46875,0.421875 -0.46875,0.59375 0,0.09375 0.09375,0.203125 0.1875,0.203125 0.09375,0 0.140625,-0.078125 0.203125,-0.140625 C 5.390625,-5.421875 5.625,-5.703125 6.0625,-5.921875 6.125,-5.96875 6.234375,-6.015625 6.234375,-6.125 6.234375,-6.234375 6.15625,-6.28125 6.09375,-6.328125 5.875,-6.484375 5.765625,-6.65625 5.6875,-6.890625 5.65625,-6.984375 5.625,-7.125 5.484375,-7.125 c -0.140625,0 -0.203125,0.140625 -0.203125,0.21875 0,0.046875 0.078125,0.359375 0.234375,0.578125 H 2.15625 c -0.15625,0 -0.34375,0 -0.34375,0.203125 0,0.1875 0.1875,0.1875 0.34375,0.1875 z m 0,0"
             id="path1095" />
        </symbol>
        <symbol
           style="overflow:visible"
           overflow="visible"
           id="textext-d004b058-2">
          <path
             inkscape:connector-curvature="0"
             style="stroke:none"
             d="m 4.671875,-3.703125 c 0,-0.546875 -0.265625,-0.703125 -0.4375,-0.703125 -0.25,0 -0.5,0.265625 -0.5,0.484375 0,0.125 0.046875,0.1875 0.15625,0.296875 0.21875,0.203125 0.34375,0.453125 0.34375,0.8125 0,0.421875 -0.609375,2.703125 -1.765625,2.703125 -0.515625,0 -0.75,-0.34375 -0.75,-0.875 0,-0.546875 0.28125,-1.28125 0.578125,-2.109375 0.078125,-0.171875 0.125,-0.3125 0.125,-0.5 0,-0.4375 -0.3125,-0.8125 -0.8125,-0.8125 -0.9375,0 -1.3125,1.453125 -1.3125,1.53125 0,0.109375 0.09375,0.109375 0.109375,0.109375 0.109375,0 0.109375,-0.03125 0.15625,-0.1875 0.296875,-1 0.71875,-1.234375 1.015625,-1.234375 0.078125,0 0.25,0 0.25,0.3125 0,0.25 -0.109375,0.53125 -0.171875,0.703125 -0.4375,1.15625 -0.5625,1.609375 -0.5625,2.046875 0,1.078125 0.875,1.234375 1.328125,1.234375 1.671875,0 2.25,-3.296875 2.25,-3.8125 z m 0,0"
             id="path1098" />
        </symbol>
        <symbol
           style="overflow:visible"
           overflow="visible"
           id="textext-d004b058-3">
          <path
             inkscape:connector-curvature="0"
             style="stroke:none"
             d="m 1.90625,-0.53125 c 0,-0.28125 -0.234375,-0.53125 -0.515625,-0.53125 -0.296875,0 -0.53125,0.25 -0.53125,0.53125 C 0.859375,-0.234375 1.09375,0 1.390625,0 1.671875,0 1.90625,-0.234375 1.90625,-0.53125 Z m 0,0"
             id="path1101" />
        </symbol>
        <symbol
           style="overflow:visible"
           overflow="visible"
           id="textext-d004b058-4">
          <path
             inkscape:connector-curvature="0"
             style="stroke:none"
             d=""
             id="path1104" />
        </symbol>
        <symbol
           style="overflow:visible"
           overflow="visible"
           id="textext-d004b058-5">
          <path
             inkscape:connector-curvature="0"
             style="stroke:none"
             d="m 6.84375,-3.265625 c 0.15625,0 0.34375,0 0.34375,-0.1875 C 7.1875,-3.65625 7,-3.65625 6.859375,-3.65625 h -5.96875 c -0.140625,0 -0.328125,0 -0.328125,0.203125 0,0.1875 0.1875,0.1875 0.328125,0.1875 z m 0.015625,1.9375 c 0.140625,0 0.328125,0 0.328125,-0.203125 0,-0.1875 -0.1875,-0.1875 -0.34375,-0.1875 H 0.890625 c -0.140625,0 -0.328125,0 -0.328125,0.1875 0,0.203125 0.1875,0.203125 0.328125,0.203125 z m 0,0"
             id="path1107" />
        </symbol>
        <symbol
           style="overflow:visible"
           overflow="visible"
           id="textext-d004b058-6">
          <path
             inkscape:connector-curvature="0"
             style="stroke:none"
             d="m 1.265625,-0.765625 1.0625,-1.03125 c 1.546875,-1.375 2.140625,-1.90625 2.140625,-2.90625 0,-1.140625 -0.890625,-1.9375 -2.109375,-1.9375 -1.125,0 -1.859375,0.921875 -1.859375,1.8125 0,0.546875 0.5,0.546875 0.53125,0.546875 0.171875,0 0.515625,-0.109375 0.515625,-0.53125 0,-0.25 -0.1875,-0.515625 -0.53125,-0.515625 -0.078125,0 -0.09375,0 -0.125,0.015625 0.21875,-0.65625 0.765625,-1.015625 1.34375,-1.015625 0.90625,0 1.328125,0.8125 1.328125,1.625 C 3.5625,-3.90625 3.078125,-3.125 2.515625,-2.5 l -1.90625,2.125 C 0.5,-0.265625 0.5,-0.234375 0.5,0 H 4.203125 L 4.46875,-1.734375 H 4.234375 C 4.171875,-1.4375 4.109375,-1 4,-0.84375 3.9375,-0.765625 3.28125,-0.765625 3.0625,-0.765625 Z m 0,0"
             id="path1110" />
        </symbol>
        <symbol
           style="overflow:visible"
           overflow="visible"
           id="textext-d004b058-7">
          <path
             inkscape:connector-curvature="0"
             style="stroke:none"
             d="m 4.46875,-2 c 0,-1.1875 -0.8125,-2.1875 -1.890625,-2.1875 -0.46875,0 -0.90625,0.15625 -1.265625,0.515625 V -5.625 c 0.203125,0.0625 0.53125,0.125 0.84375,0.125 1.234375,0 1.9375,-0.90625 1.9375,-1.03125 0,-0.0625 -0.03125,-0.109375 -0.109375,-0.109375 0,0 -0.03125,0 -0.078125,0.03125 C 3.703125,-6.515625 3.21875,-6.3125 2.546875,-6.3125 2.15625,-6.3125 1.6875,-6.390625 1.21875,-6.59375 1.140625,-6.625 1.125,-6.625 1.109375,-6.625 1,-6.625 1,-6.546875 1,-6.390625 V -3.4375 c 0,0.171875 0,0.25 0.140625,0.25 0.078125,0 0.09375,-0.015625 0.140625,-0.078125 C 1.390625,-3.421875 1.75,-3.96875 2.5625,-3.96875 c 0.515625,0 0.765625,0.453125 0.84375,0.640625 0.15625,0.375 0.1875,0.75 0.1875,1.25 0,0.359375 0,0.953125 -0.25,1.375 C 3.109375,-0.3125 2.734375,-0.0625 2.28125,-0.0625 c -0.71875,0 -1.296875,-0.53125 -1.46875,-1.109375 0.03125,0 0.0625,0.015625 0.171875,0.015625 0.328125,0 0.5,-0.25 0.5,-0.484375 0,-0.25 -0.171875,-0.5 -0.5,-0.5 C 0.84375,-2.140625 0.5,-2.0625 0.5,-1.609375 0.5,-0.75 1.1875,0.21875 2.296875,0.21875 3.453125,0.21875 4.46875,-0.734375 4.46875,-2 Z m 0,0"
             id="path1113" />
        </symbol>
        <symbol
           style="overflow:visible"
           overflow="visible"
           id="textext-d004b058-8">
          <path
             inkscape:connector-curvature="0"
             style="stroke:none"
             d="m 2.890625,-3.515625 c 0.8125,-0.265625 1.390625,-0.953125 1.390625,-1.75 0,-0.8125 -0.875,-1.375 -1.828125,-1.375 -1,0 -1.765625,0.59375 -1.765625,1.359375 0,0.328125 0.21875,0.515625 0.515625,0.515625 0.296875,0 0.5,-0.21875 0.5,-0.515625 0,-0.484375 -0.46875,-0.484375 -0.609375,-0.484375 0.296875,-0.5 0.953125,-0.625 1.3125,-0.625 0.421875,0 0.96875,0.21875 0.96875,1.109375 0,0.125 -0.03125,0.703125 -0.28125,1.140625 C 2.796875,-3.65625 2.453125,-3.625 2.203125,-3.625 2.125,-3.609375 1.890625,-3.59375 1.8125,-3.59375 c -0.078125,0.015625 -0.140625,0.03125 -0.140625,0.125 0,0.109375 0.0625,0.109375 0.234375,0.109375 h 0.4375 c 0.8125,0 1.1875,0.671875 1.1875,1.65625 0,1.359375 -0.6875,1.640625 -1.125,1.640625 -0.4375,0 -1.1875,-0.171875 -1.53125,-0.75 0.34375,0.046875 0.65625,-0.171875 0.65625,-0.546875 0,-0.359375 -0.265625,-0.5625 -0.546875,-0.5625 -0.25,0 -0.5625,0.140625 -0.5625,0.578125 0,0.90625 0.921875,1.5625 2.015625,1.5625 1.21875,0 2.125,-0.90625 2.125,-1.921875 0,-0.8125 -0.640625,-1.59375 -1.671875,-1.8125 z m 0,0"
             id="path1116" />
        </symbol>
        <symbol
           style="overflow:visible"
           overflow="visible"
           id="textext-d004b058-9">
          <path
             inkscape:connector-curvature="0"
             style="stroke:none"
             d="m 2.9375,-6.375 c 0,-0.25 0,-0.265625 -0.234375,-0.265625 C 2.078125,-6 1.203125,-6 0.890625,-6 v 0.3125 c 0.203125,0 0.78125,0 1.296875,-0.265625 v 5.171875 c 0,0.359375 -0.03125,0.46875 -0.921875,0.46875 h -0.3125 V 0 c 0.34375,-0.03125 1.203125,-0.03125 1.609375,-0.03125 0.390625,0 1.265625,0 1.609375,0.03125 v -0.3125 h -0.3125 c -0.90625,0 -0.921875,-0.109375 -0.921875,-0.46875 z m 0,0"
             id="path1119" />
        </symbol>
        <symbol
           style="overflow:visible"
           overflow="visible"
           id="textext-d004b058-10">
          <path
             inkscape:connector-curvature="0"
             style="stroke:none"
             d=""
             id="path1122" />
        </symbol>
        <symbol
           style="overflow:visible"
           overflow="visible"
           id="textext-d004b058-11">
          <path
             inkscape:connector-curvature="0"
             style="stroke:none"
             d="m 6.984375,23.421875 c 0,-0.04687 -0.03125,-0.0625 -0.046875,-0.09375 -0.375,-0.375 -1.03125,-1.03125 -1.703125,-2.109375 C 3.625,18.640625 2.90625,15.40625 2.90625,11.5625 c 0,-2.6875 0.359375,-6.140625 2,-9.109375 C 5.6875,1.03125 6.515625,0.21875 6.953125,-0.21875 c 0.03125,-0.03125 0.03125,-0.046875 0.03125,-0.078125 0,-0.109375 -0.078125,-0.109375 -0.21875,-0.109375 -0.140625,0 -0.15625,0 -0.3125,0.15625 -3.328125,3.046875 -4.375,7.609375 -4.375,11.796875 0,3.921875 0.890625,7.875 3.421875,10.859375 0.203125,0.21875 0.578125,0.625 0.984375,0.984375 0.125,0.125 0.140625,0.125 0.28125,0.125 0.140625,0 0.21875,0 0.21875,-0.09375 z m 0,0"
             id="path1125" />
        </symbol>
        <symbol
           style="overflow:visible"
           overflow="visible"
           id="textext-d004b058-12">
          <path
             inkscape:connector-curvature="0"
             style="stroke:none"
             d="M 5.25,11.5625 C 5.25,7.640625 4.359375,3.703125 1.828125,0.71875 1.625,0.484375 1.25,0.078125 0.84375,-0.28125 c -0.125,-0.125 -0.140625,-0.125 -0.28125,-0.125 -0.125,0 -0.21875,0 -0.21875,0.109375 0,0.03125 0.046875,0.078125 0.0625,0.09375 0.34375,0.359375 1.015625,1.03125 1.6875,2.109375 1.609375,2.5625 2.328125,5.8125 2.328125,9.640625 0,2.6875 -0.359375,6.140625 -2,9.125 -0.78125,1.40625 -1.609375,2.234375 -2.03125,2.65625 -0.015625,0.03125 -0.046875,0.0625 -0.046875,0.09375 0,0.09375 0.09375,0.09375 0.21875,0.09375 0.140625,0 0.15625,0 0.3125,-0.15625 C 4.203125,20.328125 5.25,15.765625 5.25,11.5625 Z m 0,0"
             id="path1128" />
        </symbol>
      </g>
    </defs>
    <defs
       id="defs1929">
      <g
         id="g1927">
        <symbol
           style="overflow:visible"
           overflow="visible"
           id="textext-2d098f0a-0">
          <path
             inkscape:connector-curvature="0"
             style="stroke:none"
             d=""
             id="path1876" />
        </symbol>
        <symbol
           style="overflow:visible"
           overflow="visible"
           id="textext-2d098f0a-1">
          <path
             inkscape:connector-curvature="0"
             style="stroke:none"
             d="M 3.734375,17.640625 C 3.953125,17.640625 4,17.640625 4,17.5 4.03125,10.515625 4.828125,4.71875 8.328125,-0.15625 c 0.0625,-0.09375 0.0625,-0.109375 0.0625,-0.140625 0,-0.09375 -0.0625,-0.09375 -0.21875,-0.09375 -0.171875,0 -0.1875,0 -0.203125,0.015625 -0.046875,0.03125 -1.3125,1.484375 -2.3125,3.5 -1.3125,2.625 -2.140625,5.640625 -2.515625,9.28125 -0.03125,0.296875 -0.234375,2.375 -0.234375,4.734375 v 0.390625 c 0,0.109375 0.0625,0.109375 0.28125,0.109375 z m 0,0"
             id="path1879" />
        </symbol>
        <symbol
           style="overflow:visible"
           overflow="visible"
           id="textext-2d098f0a-2">
          <path
             inkscape:connector-curvature="0"
             style="stroke:none"
             d="m 3.1875,-0.5 c -0.21875,0 -0.28125,0 -0.28125,0.109375 V 0 c 0,6.09375 1.078125,9.65625 1.390625,10.671875 C 4.96875,12.875 6.078125,15.21875 7.75,17.265625 7.890625,17.453125 7.9375,17.5 7.96875,17.515625 8,17.53125 8,17.53125 8.171875,17.53125 c 0.15625,0 0.21875,0 0.21875,-0.09375 0,-0.01563 0,-0.04687 -0.0625,-0.125 C 5.015625,12.703125 4.015625,7.15625 4,-0.359375 4,-0.5 3.953125,-0.5 3.734375,-0.5 Z m 0,0"
             id="path1882" />
        </symbol>
        <symbol
           style="overflow:visible"
           overflow="visible"
           id="textext-2d098f0a-3">
          <path
             inkscape:connector-curvature="0"
             style="stroke:none"
             d="M 5.8125,17.140625 C 5.8125,11.0625 4.71875,7.484375 4.421875,6.484375 3.734375,4.265625 2.625,1.9375 0.96875,-0.125 0.8125,-0.296875 0.78125,-0.34375 0.734375,-0.375 c -0.015625,0 -0.03125,-0.015625 -0.1875,-0.015625 -0.140625,0 -0.234375,0 -0.234375,0.09375 0,0.03125 0,0.046875 0.140625,0.234375 3.46875,4.84375 4.234375,10.8125 4.25,17.5625 0,0.140625 0.0625,0.140625 0.28125,0.140625 H 5.53125 c 0.203125,0 0.265625,0 0.28125,-0.109375 z m 0,0"
             id="path1885" />
        </symbol>
        <symbol
           style="overflow:visible"
           overflow="visible"
           id="textext-2d098f0a-4">
          <path
             inkscape:connector-curvature="0"
             style="stroke:none"
             d="M 5.8125,-0.390625 C 5.796875,-0.5 5.734375,-0.5 5.53125,-0.5 H 4.984375 c -0.21875,0 -0.28125,0 -0.28125,0.140625 0,1.03125 -0.015625,3.40625 -0.265625,5.875 C 3.890625,10.671875 2.578125,14.25 0.390625,17.3125 0.3125,17.390625 0.3125,17.421875 0.3125,17.4375 c 0,0.09375 0.09375,0.09375 0.234375,0.09375 0.15625,0 0.1875,0 0.203125,-0.01563 C 0.78125,17.48438 2.046875,16.03125 3.0625,14.03125 4.375,11.390625 5.203125,8.375 5.578125,4.75 5.609375,4.4375 5.8125,2.359375 5.8125,0 Z m 0,0"
             id="path1888" />
        </symbol>
        <symbol
           style="overflow:visible"
           overflow="visible"
           id="textext-2d098f0a-5">
          <path
             inkscape:connector-curvature="0"
             style="stroke:none"
             d=""
             id="path1891" />
        </symbol>
        <symbol
           style="overflow:visible"
           overflow="visible"
           id="textext-2d098f0a-6">
          <path
             inkscape:connector-curvature="0"
             style="stroke:none"
             d="m 4.578125,-3.1875 c 0,-0.796875 -0.046875,-1.59375 -0.390625,-2.328125 -0.453125,-0.96875 -1.28125,-1.125 -1.6875,-1.125 -0.609375,0 -1.328125,0.265625 -1.75,1.1875 -0.3125,0.6875 -0.359375,1.46875 -0.359375,2.265625 0,0.75 0.03125,1.640625 0.453125,2.40625 0.421875,0.796875 1.15625,1 1.640625,1 0.53125,0 1.296875,-0.203125 1.734375,-1.15625 0.3125,-0.6875 0.359375,-1.46875 0.359375,-2.25 z M 2.484375,0 C 2.09375,0 1.5,-0.25 1.328125,-1.203125 1.21875,-1.796875 1.21875,-2.71875 1.21875,-3.3125 c 0,-0.640625 0,-1.296875 0.078125,-1.828125 0.1875,-1.1875 0.9375,-1.28125 1.1875,-1.28125 0.328125,0 0.984375,0.1875 1.171875,1.171875 0.109375,0.5625 0.109375,1.3125 0.109375,1.9375 0,0.75 0,1.421875 -0.109375,2.0625 C 3.5,-0.296875 2.9375,0 2.484375,0 Z m 0,0"
             id="path1894" />
        </symbol>
        <symbol
           style="overflow:visible"
           overflow="visible"
           id="textext-2d098f0a-7">
          <path
             inkscape:connector-curvature="0"
             style="stroke:none"
             d="m 3.65625,-3.171875 v 0.328125 c 0,2.328125 -1.03125,2.78125 -1.609375,2.78125 -0.171875,0 -0.71875,-0.015625 -0.984375,-0.359375 0.4375,0 0.515625,-0.28125 0.515625,-0.453125 0,-0.3125 -0.234375,-0.453125 -0.453125,-0.453125 -0.15625,0 -0.453125,0.078125 -0.453125,0.46875 0,0.671875 0.53125,1.078125 1.375,1.078125 1.296875,0 2.515625,-1.359375 2.515625,-3.5 0,-2.6875 -1.15625,-3.359375 -2.046875,-3.359375 -0.546875,0 -1.03125,0.1875 -1.453125,0.625 -0.421875,0.453125 -0.640625,0.875 -0.640625,1.625 0,1.234375 0.875,2.21875 1.984375,2.21875 0.609375,0 1.015625,-0.421875 1.25,-1 z M 2.421875,-2.40625 c -0.15625,0 -0.625,0 -0.921875,-0.625 -0.1875,-0.375 -0.1875,-0.859375 -0.1875,-1.359375 0,-0.53125 0,-1 0.21875,-1.375 0.265625,-0.5 0.640625,-0.625 0.984375,-0.625 0.46875,0 0.796875,0.34375 0.96875,0.78125 0.109375,0.328125 0.15625,0.953125 0.15625,1.40625 0,0.828125 -0.34375,1.796875 -1.21875,1.796875 z m 0,0"
             id="path1897" />
        </symbol>
        <symbol
           style="overflow:visible"
           overflow="visible"
           id="textext-2d098f0a-8">
          <path
             inkscape:connector-curvature="0"
             style="stroke:none"
             d="m 2.9375,-6.375 c 0,-0.25 0,-0.265625 -0.234375,-0.265625 C 2.078125,-6 1.203125,-6 0.890625,-6 v 0.3125 c 0.203125,0 0.78125,0 1.296875,-0.265625 v 5.171875 c 0,0.359375 -0.03125,0.46875 -0.921875,0.46875 h -0.3125 V 0 c 0.34375,-0.03125 1.203125,-0.03125 1.609375,-0.03125 0.390625,0 1.265625,0 1.609375,0.03125 v -0.3125 h -0.3125 c -0.90625,0 -0.921875,-0.109375 -0.921875,-0.46875 z m 0,0"
             id="path1900" />
        </symbol>
        <symbol
           style="overflow:visible"
           overflow="visible"
           id="textext-2d098f0a-9">
          <path
             inkscape:connector-curvature="0"
             style="stroke:none"
             d="m 4.46875,-2 c 0,-1.1875 -0.8125,-2.1875 -1.890625,-2.1875 -0.46875,0 -0.90625,0.15625 -1.265625,0.515625 V -5.625 c 0.203125,0.0625 0.53125,0.125 0.84375,0.125 1.234375,0 1.9375,-0.90625 1.9375,-1.03125 0,-0.0625 -0.03125,-0.109375 -0.109375,-0.109375 0,0 -0.03125,0 -0.078125,0.03125 C 3.703125,-6.515625 3.21875,-6.3125 2.546875,-6.3125 2.15625,-6.3125 1.6875,-6.390625 1.21875,-6.59375 1.140625,-6.625 1.125,-6.625 1.109375,-6.625 1,-6.625 1,-6.546875 1,-6.390625 V -3.4375 c 0,0.171875 0,0.25 0.140625,0.25 0.078125,0 0.09375,-0.015625 0.140625,-0.078125 C 1.390625,-3.421875 1.75,-3.96875 2.5625,-3.96875 c 0.515625,0 0.765625,0.453125 0.84375,0.640625 0.15625,0.375 0.1875,0.75 0.1875,1.25 0,0.359375 0,0.953125 -0.25,1.375 C 3.109375,-0.3125 2.734375,-0.0625 2.28125,-0.0625 c -0.71875,0 -1.296875,-0.53125 -1.46875,-1.109375 0.03125,0 0.0625,0.015625 0.171875,0.015625 0.328125,0 0.5,-0.25 0.5,-0.484375 0,-0.25 -0.171875,-0.5 -0.5,-0.5 C 0.84375,-2.140625 0.5,-2.0625 0.5,-1.609375 0.5,-0.75 1.1875,0.21875 2.296875,0.21875 3.453125,0.21875 4.46875,-0.734375 4.46875,-2 Z m 0,0"
             id="path1903" />
        </symbol>
        <symbol
           style="overflow:visible"
           overflow="visible"
           id="textext-2d098f0a-10">
          <path
             inkscape:connector-curvature="0"
             style="stroke:none"
             d="m 6.84375,-3.265625 c 0.15625,0 0.34375,0 0.34375,-0.1875 C 7.1875,-3.65625 7,-3.65625 6.859375,-3.65625 h -5.96875 c -0.140625,0 -0.328125,0 -0.328125,0.203125 0,0.1875 0.1875,0.1875 0.328125,0.1875 z m 0.015625,1.9375 c 0.140625,0 0.328125,0 0.328125,-0.203125 0,-0.1875 -0.1875,-0.1875 -0.34375,-0.1875 H 0.890625 c -0.140625,0 -0.328125,0 -0.328125,0.1875 0,0.203125 0.1875,0.203125 0.328125,0.203125 z m 0,0"
             id="path1906" />
        </symbol>
        <symbol
           style="overflow:visible"
           overflow="visible"
           id="textext-2d098f0a-11">
          <path
             inkscape:connector-curvature="0"
             style="stroke:none"
             d=""
             id="path1909" />
        </symbol>
        <symbol
           style="overflow:visible"
           overflow="visible"
           id="textext-2d098f0a-12">
          <path
             inkscape:connector-curvature="0"
             style="stroke:none"
             d="m 1.90625,-0.53125 c 0,-0.28125 -0.234375,-0.53125 -0.515625,-0.53125 -0.296875,0 -0.53125,0.25 -0.53125,0.53125 C 0.859375,-0.234375 1.09375,0 1.390625,0 1.671875,0 1.90625,-0.234375 1.90625,-0.53125 Z m 0,0"
             id="path1912" />
        </symbol>
        <symbol
           style="overflow:visible"
           overflow="visible"
           id="textext-2d098f0a-13">
          <path
             inkscape:connector-curvature="0"
             style="stroke:none"
             d="m 5.359375,-5.9375 c -0.140625,0.140625 -0.46875,0.421875 -0.46875,0.59375 0,0.09375 0.09375,0.203125 0.1875,0.203125 0.09375,0 0.140625,-0.078125 0.203125,-0.140625 C 5.390625,-5.421875 5.625,-5.703125 6.0625,-5.921875 6.125,-5.96875 6.234375,-6.015625 6.234375,-6.125 6.234375,-6.234375 6.15625,-6.28125 6.09375,-6.328125 5.875,-6.484375 5.765625,-6.65625 5.6875,-6.890625 5.65625,-6.984375 5.625,-7.125 5.484375,-7.125 c -0.140625,0 -0.203125,0.140625 -0.203125,0.21875 0,0.046875 0.078125,0.359375 0.234375,0.578125 H 2.15625 c -0.15625,0 -0.34375,0 -0.34375,0.203125 0,0.1875 0.1875,0.1875 0.34375,0.1875 z m 0,0"
             id="path1915" />
        </symbol>
        <symbol
           style="overflow:visible"
           overflow="visible"
           id="textext-2d098f0a-14">
          <path
             inkscape:connector-curvature="0"
             style="stroke:none"
             d="m 4.671875,-3.703125 c 0,-0.546875 -0.265625,-0.703125 -0.4375,-0.703125 -0.25,0 -0.5,0.265625 -0.5,0.484375 0,0.125 0.046875,0.1875 0.15625,0.296875 0.21875,0.203125 0.34375,0.453125 0.34375,0.8125 0,0.421875 -0.609375,2.703125 -1.765625,2.703125 -0.515625,0 -0.75,-0.34375 -0.75,-0.875 0,-0.546875 0.28125,-1.28125 0.578125,-2.109375 0.078125,-0.171875 0.125,-0.3125 0.125,-0.5 0,-0.4375 -0.3125,-0.8125 -0.8125,-0.8125 -0.9375,0 -1.3125,1.453125 -1.3125,1.53125 0,0.109375 0.09375,0.109375 0.109375,0.109375 0.109375,0 0.109375,-0.03125 0.15625,-0.1875 0.296875,-1 0.71875,-1.234375 1.015625,-1.234375 0.078125,0 0.25,0 0.25,0.3125 0,0.25 -0.109375,0.53125 -0.171875,0.703125 -0.4375,1.15625 -0.5625,1.609375 -0.5625,2.046875 0,1.078125 0.875,1.234375 1.328125,1.234375 1.671875,0 2.25,-3.296875 2.25,-3.8125 z m 0,0"
             id="path1918" />
        </symbol>
        <symbol
           style="overflow:visible"
           overflow="visible"
           id="textext-2d098f0a-15">
          <path
             inkscape:connector-curvature="0"
             style="stroke:none"
             d=""
             id="path1921" />
        </symbol>
        <symbol
           style="overflow:visible"
           overflow="visible"
           id="textext-2d098f0a-16">
          <path
             inkscape:connector-curvature="0"
             style="stroke:none"
             d="m 2.015625,-3.296875 c 0.0625,-0.109375 0.0625,-0.171875 0.0625,-0.21875 0,-0.21875 -0.1875,-0.375 -0.40625,-0.375 -0.265625,0 -0.34375,0.21875 -0.375,0.328125 L 0.375,-0.546875 c -0.015625,0.015625 -0.046875,0.09375 -0.046875,0.109375 0,0.078125 0.21875,0.15625 0.28125,0.15625 0.046875,0 0.046875,-0.015625 0.09375,-0.125 z m 0,0"
             id="path1924" />
        </symbol>
      </g>
    </defs>
  </defs>
  <metadata
     id="metadata5">
    <rdf:RDF>
      <cc:Work
         rdf:about="">
        <dc:format>image/svg+xml</dc:format>
        <dc:type
           rdf:resource="http://purl.org/dc/dcmitype/StillImage" />
        <dc:title></dc:title>
      </cc:Work>
    </rdf:RDF>
  </metadata>
  <g
     inkscape:label="Layer 1"
     inkscape:groupmode="layer"
     id="layer1"
     transform="translate(23.65276,-86.677283)">
    <path
       style="fill:none;stroke:#000000;stroke-width:0.26458332px;stroke-linecap:butt;stroke-linejoin:miter;stroke-opacity:1"
       d="M 17.038427,114.95604 53.320267,96.033361"
       id="path864"
       inkscape:connector-curvature="0" />
    <path
       style="fill:none;stroke:#000000;stroke-width:0.26458332px;stroke-linecap:butt;stroke-linejoin:miter;stroke-opacity:1"
       d="m 17.038427,114.95604 36.28184,-9.46134"
       id="path866"
       inkscape:connector-curvature="0" />
    <path
       style="fill:none;stroke:#000000;stroke-width:0.26458332px;stroke-linecap:butt;stroke-linejoin:miter;stroke-opacity:1"
       d="m 17.038427,114.95604 h 36.28184"
       id="path868"
       inkscape:connector-curvature="0" />
    <path
       style="fill:none;stroke:#000000;stroke-width:0.26458332px;stroke-linecap:butt;stroke-linejoin:miter;stroke-opacity:1"
       d="m 17.038427,114.95604 36.28184,9.46135"
       id="path870"
       inkscape:connector-curvature="0" />
    <path
       style="fill:none;stroke:#000000;stroke-width:0.26458332px;stroke-linecap:butt;stroke-linejoin:miter;stroke-opacity:1"
       d="m 17.038427,114.95604 36.28184,18.92269"
       id="path872"
       inkscape:connector-curvature="0" />
    <path
       style="fill:none;stroke:#000000;stroke-width:0.26458332px;stroke-linecap:butt;stroke-linejoin:miter;stroke-opacity:1"
       d="m 17.038427,114.95604 36.28184,28.38402"
       id="path874"
       inkscape:connector-curvature="0" />
    <path
       style="fill:none;stroke:#000000;stroke-width:0.26458332px;stroke-linecap:butt;stroke-linejoin:miter;stroke-opacity:1"
       d="M 17.038427,124.41738 53.320267,96.033361"
       id="path876"
       inkscape:connector-curvature="0" />
    <path
       style="fill:none;stroke:#000000;stroke-width:0.26458332px;stroke-linecap:butt;stroke-linejoin:miter;stroke-opacity:1"
       d="M 17.038427,124.41738 53.320267,105.4947"
       id="path878"
       inkscape:connector-curvature="0" />
    <path
       style="fill:none;stroke:#000000;stroke-width:0.26458332px;stroke-linecap:butt;stroke-linejoin:miter;stroke-opacity:1"
       d="m 17.038427,124.41738 36.28184,-9.46134"
       id="path880"
       inkscape:connector-curvature="0" />
    <path
       style="fill:none;stroke:#000000;stroke-width:0.26458332px;stroke-linecap:butt;stroke-linejoin:miter;stroke-opacity:1"
       d="m 17.038427,124.41738 36.28184,1e-5"
       id="path882"
       inkscape:connector-curvature="0" />
    <path
       style="fill:none;stroke:#000000;stroke-width:0.26458332px;stroke-linecap:butt;stroke-linejoin:miter;stroke-opacity:1"
       d="m 17.038427,124.41738 36.28184,9.46135"
       id="path884"
       inkscape:connector-curvature="0" />
    <path
       style="fill:none;stroke:#000000;stroke-width:0.26458332px;stroke-linecap:butt;stroke-linejoin:miter;stroke-opacity:1"
       d="m 17.038427,124.41738 36.28184,18.92268"
       id="path886"
       inkscape:connector-curvature="0" />
    <path
       style="fill:none;stroke:#000000;stroke-width:0.26458332px;stroke-linecap:butt;stroke-linejoin:miter;stroke-opacity:1"
       d="M 53.320267,96.033359 89.602102,110.22584"
       id="path888"
       inkscape:connector-curvature="0" />
    <path
       style="fill:none;stroke:#000000;stroke-width:0.26458332px;stroke-linecap:butt;stroke-linejoin:miter;stroke-opacity:1"
       d="m 53.320267,105.4947 36.281835,14.19248"
       id="path890"
       inkscape:connector-curvature="0" />
    <path
       style="fill:none;stroke:#000000;stroke-width:0.26458332px;stroke-linecap:butt;stroke-linejoin:miter;stroke-opacity:1"
       d="m 53.320267,114.95604 36.357887,14.19155"
       id="path892"
       inkscape:connector-curvature="0" />
    <path
       style="fill:none;stroke:#000000;stroke-width:0.26458332px;stroke-linecap:butt;stroke-linejoin:miter;stroke-opacity:1"
       d="M 53.320267,143.34006 89.678152,129.14759"
       id="path894"
       inkscape:connector-curvature="0" />
    <path
       style="fill:none;stroke:#000000;stroke-width:0.26458332px;stroke-linecap:butt;stroke-linejoin:miter;stroke-opacity:1"
       d="M 53.320267,133.87873 89.6021,119.68718"
       id="path896"
       inkscape:connector-curvature="0" />
    <path
       style="fill:none;stroke:#000000;stroke-width:0.26458332px;stroke-linecap:butt;stroke-linejoin:miter;stroke-opacity:1"
       d="M 53.320267,124.41739 89.6021,110.22584"
       id="path898"
       inkscape:connector-curvature="0" />
    <path
       style="fill:none;stroke:#000000;stroke-width:0.26458332px;stroke-linecap:butt;stroke-linejoin:miter;stroke-opacity:1"
       d="M 53.320267,96.033359 88.070893,119.08821"
       id="path900"
       inkscape:connector-curvature="0" />
    <path
       style="fill:none;stroke:#000000;stroke-width:0.26458332px;stroke-linecap:butt;stroke-linejoin:miter;stroke-opacity:1"
       d="m 53.320267,105.4947 36.357885,23.65289"
       id="path902"
       inkscape:connector-curvature="0" />
    <path
       style="fill:none;stroke:#000000;stroke-width:0.26458332px;stroke-linecap:butt;stroke-linejoin:miter;stroke-opacity:1"
       d="M 53.320267,96.033359 89.678149,129.14759"
       id="path904"
       inkscape:connector-curvature="0" />
    <path
       style="fill:none;stroke:#000000;stroke-width:0.26458332px;stroke-linecap:butt;stroke-linejoin:miter;stroke-opacity:1"
       d="M 53.320267,105.4947 89.6021,110.22584"
       id="path906"
       inkscape:connector-curvature="0" />
    <path
       style="fill:none;stroke:#000000;stroke-width:0.26458332px;stroke-linecap:butt;stroke-linejoin:miter;stroke-opacity:1"
       d="M 53.320267,114.95604 89.6021,110.22584"
       id="path908"
       inkscape:connector-curvature="0" />
    <path
       style="fill:none;stroke:#000000;stroke-width:0.26458332px;stroke-linecap:butt;stroke-linejoin:miter;stroke-opacity:1"
       d="m 53.320267,114.95604 36.357882,14.19155"
       id="path910"
       inkscape:connector-curvature="0" />
    <path
       style="fill:none;stroke:#000000;stroke-width:0.26458332px;stroke-linecap:butt;stroke-linejoin:miter;stroke-opacity:1"
       d="m 53.320267,114.95604 36.281835,4.73114"
       id="path912"
       inkscape:connector-curvature="0" />
    <path
       style="fill:none;stroke:#000000;stroke-width:0.26458332px;stroke-linecap:butt;stroke-linejoin:miter;stroke-opacity:1"
       d="m 53.320267,124.41739 36.281835,-4.73021"
       id="path914"
       inkscape:connector-curvature="0" />
    <path
       style="fill:none;stroke:#000000;stroke-width:0.26458332px;stroke-linecap:butt;stroke-linejoin:miter;stroke-opacity:1"
       d="m 53.320267,124.41739 36.357874,4.73019"
       id="path916"
       inkscape:connector-curvature="0" />
    <path
       style="fill:none;stroke:#000000;stroke-width:0.26458332px;stroke-linecap:butt;stroke-linejoin:miter;stroke-opacity:1"
       d="M 53.320267,133.87873 89.6021,110.22584"
       id="path918"
       inkscape:connector-curvature="0" />
    <path
       style="fill:none;stroke:#000000;stroke-width:0.26458332px;stroke-linecap:butt;stroke-linejoin:miter;stroke-opacity:1"
       d="m 53.320267,133.87873 36.357882,-4.73114"
       id="path920"
       inkscape:connector-curvature="0" />
    <path
       style="fill:none;stroke:#000000;stroke-width:0.26458332px;stroke-linecap:butt;stroke-linejoin:miter;stroke-opacity:1"
       d="M 53.320267,143.34006 89.6021,110.22584"
       id="path922"
       inkscape:connector-curvature="0" />
    <path
       style="fill:none;stroke:#000000;stroke-width:0.26458332px;stroke-linecap:butt;stroke-linejoin:miter;stroke-opacity:1"
       d="M 53.320267,143.34006 89.6021,119.68718"
       id="path924"
       inkscape:connector-curvature="0" />
    <g
       id="g833"
       transform="translate(-41.827681,20.045215)">
      <circle
         r="3.0989091"
         cy="94.910828"
         cx="58.866108"
         id="circle819"
         style="opacity:1;fill:#ffffff;fill-opacity:1;stroke:#000000;stroke-width:0.70555556;stroke-linecap:round;stroke-linejoin:round;stroke-miterlimit:4;stroke-dasharray:none;stroke-dashoffset:0;stroke-opacity:1" />
      <circle
         r="3.0989091"
         cy="104.37217"
         cx="58.866108"
         id="circle823"
         style="opacity:1;fill:#ffffff;fill-opacity:1;stroke:#000000;stroke-width:0.70555556;stroke-linecap:round;stroke-linejoin:round;stroke-miterlimit:4;stroke-dasharray:none;stroke-dashoffset:0;stroke-opacity:1" />
    </g>
    <g
       id="g841"
       transform="translate(-5.5458403,1.1225351)">
      <circle
         r="3.0989091"
         cy="94.910828"
         cx="58.866108"
         id="path815"
         style="opacity:1;fill:#ffffff;fill-opacity:1;stroke:#000000;stroke-width:0.70555556;stroke-linecap:round;stroke-linejoin:round;stroke-miterlimit:4;stroke-dasharray:none;stroke-dashoffset:0;stroke-opacity:1" />
      <circle
         style="opacity:1;fill:#ffffff;fill-opacity:1;stroke:#000000;stroke-width:0.70555556;stroke-linecap:round;stroke-linejoin:round;stroke-miterlimit:4;stroke-dasharray:none;stroke-dashoffset:0;stroke-opacity:1"
         id="circle817"
         cx="58.866108"
         cy="104.37217"
         r="3.0989091" />
      <circle
         style="opacity:1;fill:#ffffff;fill-opacity:1;stroke:#000000;stroke-width:0.70555556;stroke-linecap:round;stroke-linejoin:round;stroke-miterlimit:4;stroke-dasharray:none;stroke-dashoffset:0;stroke-opacity:1"
         id="circle821"
         cx="58.866108"
         cy="142.21753"
         r="3.0989091" />
      <circle
         style="opacity:1;fill:#ffffff;fill-opacity:1;stroke:#000000;stroke-width:0.70555556;stroke-linecap:round;stroke-linejoin:round;stroke-miterlimit:4;stroke-dasharray:none;stroke-dashoffset:0;stroke-opacity:1"
         id="circle825"
         cx="58.866108"
         cy="113.8335"
         r="3.0989091" />
      <circle
         r="3.0989091"
         cy="123.29485"
         cx="58.866108"
         id="circle827"
         style="opacity:1;fill:#ffffff;fill-opacity:1;stroke:#000000;stroke-width:0.70555556;stroke-linecap:round;stroke-linejoin:round;stroke-miterlimit:4;stroke-dasharray:none;stroke-dashoffset:0;stroke-opacity:1" />
      <circle
         style="opacity:1;fill:#ffffff;fill-opacity:1;stroke:#000000;stroke-width:0.70555556;stroke-linecap:round;stroke-linejoin:round;stroke-miterlimit:4;stroke-dasharray:none;stroke-dashoffset:0;stroke-opacity:1"
         id="circle829"
         cx="58.866108"
         cy="132.7562"
         r="3.0989091" />
    </g>
    <g
       id="g862"
       transform="translate(30.735997,15.315009)">
      <circle
         style="opacity:1;fill:#ffffff;fill-opacity:1;stroke:#000000;stroke-width:0.70555556;stroke-linecap:round;stroke-linejoin:round;stroke-miterlimit:4;stroke-dasharray:none;stroke-dashoffset:0;stroke-opacity:1"
         id="circle843"
         cx="58.866108"
         cy="94.910828"
         r="3.0989091" />
      <circle
         style="opacity:1;fill:#ffffff;fill-opacity:1;stroke:#000000;stroke-width:0.70555556;stroke-linecap:round;stroke-linejoin:round;stroke-miterlimit:4;stroke-dasharray:none;stroke-dashoffset:0;stroke-opacity:1"
         id="circle845"
         cx="58.866108"
         cy="104.37217"
         r="3.0989091" />
      <circle
         r="3.0989091"
         cy="113.83258"
         cx="58.942158"
         id="circle851"
         style="opacity:1;fill:#ffffff;fill-opacity:1;stroke:#000000;stroke-width:0.70555556;stroke-linecap:round;stroke-linejoin:round;stroke-miterlimit:4;stroke-dasharray:none;stroke-dashoffset:0;stroke-opacity:1" />
    </g>
    <g
       transform="translate(-86.30248,-15.147396)"
       ns0:text="Input"
       ns0:preamble="/home/n03l/.inkscape/preamble.tex"
       id="g948">
      <defs
         id="defs933">
        <g
           id="g931">
          <symbol
             style="overflow:visible"
             overflow="visible"
             id="textext-9100f015-0">
            <path
               inkscape:connector-curvature="0"
               style="stroke:none"
               d=""
               id="path909" />
          </symbol>
          <symbol
             style="overflow:visible"
             overflow="visible"
             id="textext-9100f015-1">
            <path
               inkscape:connector-curvature="0"
               style="stroke:none"
               d="m 0.296875,-6.8125 v 0.296875 c 0.125,0 0.265625,0 0.40625,0 0.34375,0 0.65625,0.046875 0.65625,0.421875 V -0.75 c 0,0.375 -0.328125,0.4375 -0.65625,0.4375 -0.140625,0 -0.296875,0 -0.40625,0 v 0.296875 H 3.3125 V -0.3125 c -0.125,0 -0.265625,0 -0.40625,0 C 2.5625,-0.3125 2.25,-0.375 2.25,-0.75 v -5.34375 c 0,-0.375 0.328125,-0.421875 0.671875,-0.421875 0.125,0 0.265625,0 0.390625,0 V -6.8125 Z m 0,0"
               id="path913" />
          </symbol>
          <symbol
             style="overflow:visible"
             overflow="visible"
             id="textext-9100f015-2">
            <path
               inkscape:connector-curvature="0"
               style="stroke:none"
               d="m 0.3125,-4.296875 v 0.3125 h 0.15625 c 0.328125,0 0.625,0.03125 0.625,0.5 v 2.75 c 0,0.40625 -0.28125,0.421875 -0.71875,0.421875 H 0.3125 v 0.296875 H 2.578125 V -0.3125 H 2.3125 c -0.28125,0 -0.515625,-0.046875 -0.515625,-0.421875 v -1.8125 c 0,-0.71875 0.359375,-1.640625 1.359375,-1.640625 0.625,0 0.6875,0.6875 0.6875,1.109375 V -0.6875 c 0,0.34375 -0.28125,0.375 -0.59375,0.375 H 3.078125 v 0.296875 h 2.25 V -0.3125 h -0.25 c -0.265625,0 -0.53125,-0.046875 -0.53125,-0.390625 V -2.875 c 0,-0.328125 -0.015625,-0.671875 -0.171875,-0.96875 -0.234375,-0.4375 -0.734375,-0.5625 -1.1875,-0.5625 -0.609375,0 -1.25,0.421875 -1.4375,1.015625 L 1.734375,-4.40625 Z m 0,0"
               id="path917" />
          </symbol>
          <symbol
             style="overflow:visible"
             overflow="visible"
             id="textext-9100f015-3">
            <path
               inkscape:connector-curvature="0"
               style="stroke:none"
               d="m 0.265625,-4.296875 v 0.3125 h 0.1875 c 0.296875,0 0.59375,0.03125 0.59375,0.421875 V 1.21875 C 1.046875,1.578125 0.78125,1.609375 0.5,1.609375 H 0.265625 v 0.3125 h 2.25 v -0.3125 H 2.28125 C 1.984375,1.609375 1.75,1.578125 1.75,1.21875 v -1.734375 c 0.234375,0.421875 0.796875,0.609375 1.21875,0.609375 1.234375,0 2.21875,-1.046875 2.21875,-2.25 0,-1.203125 -0.921875,-2.25 -2.09375,-2.25 -0.546875,0 -1.015625,0.234375 -1.375,0.640625 V -4.40625 Z m 4.078125,2.3125 C 4.296875,-1.25 3.90625,-0.203125 3,-0.125 H 2.9375 C 2.515625,-0.125 2.125,-0.359375 1.890625,-0.71875 1.796875,-0.828125 1.75,-0.921875 1.75,-1.0625 V -2.734375 C 1.75,-2.875 1.734375,-3 1.734375,-3.125 1.734375,-3.65625 2.40625,-4.15625 3,-4.15625 c 1,0 1.359375,1.3125 1.359375,2.015625 0,0.046875 0,0.109375 -0.015625,0.15625 z m 0,0"
               id="path921" />
          </symbol>
          <symbol
             style="overflow:visible"
             overflow="visible"
             id="textext-9100f015-4">
            <path
               inkscape:connector-curvature="0"
               style="stroke:none"
               d="m 0.3125,-4.296875 v 0.3125 h 0.140625 c 0.28125,0 0.578125,0.015625 0.640625,0.3125 0,0.109375 0,0.21875 0,0.328125 v 1.984375 c 0,0.328125 0.015625,0.625 0.1875,0.921875 0.28125,0.421875 0.84375,0.546875 1.3125,0.546875 0.453125,0 0.859375,-0.203125 1.109375,-0.5625 C 3.765625,-0.5625 3.84375,-0.65625 3.875,-0.78125 v 0.875 L 5.328125,-0.015625 V -0.3125 h -0.15625 c -0.328125,0 -0.625,-0.03125 -0.625,-0.484375 V -4.40625 l -1.46875,0.109375 v 0.3125 H 3.21875 c 0.328125,0 0.625,0.03125 0.625,0.5 V -1.6875 c 0,0.734375 -0.375,1.5625 -1.203125,1.5625 -0.5625,0 -0.84375,-0.140625 -0.84375,-1.203125 V -4.40625 Z m 0,0"
               id="path925" />
          </symbol>
          <symbol
             style="overflow:visible"
             overflow="visible"
             id="textext-9100f015-5">
            <path
               inkscape:connector-curvature="0"
               style="stroke:none"
               d="m 1.484375,-6.140625 c 0,0.6875 -0.28125,1.9375 -1.3125,1.9375 v 0.21875 H 1.03125 v 2.5625 c 0,0.328125 0.03125,0.671875 0.1875,0.953125 0.21875,0.40625 0.6875,0.5625 1.125,0.5625 0.8125,0 0.96875,-0.90625 0.96875,-1.546875 V -1.8125 H 3.078125 c 0,0.140625 0,0.296875 0,0.453125 0,0.4375 -0.09375,1.203125 -0.6875,1.203125 -0.5625,0 -0.65625,-0.6875 -0.65625,-1.125 V -3.984375 H 3.15625 v -0.3125 H 1.734375 v -1.84375 z m 0,0"
               id="path928" />
          </symbol>
        </g>
      </defs>
      <g
         id="textext-9100f015-6">
        <g
           style="fill:#000000;fill-opacity:1"
           id="g945">
          <use
             height="100%"
             width="100%"
             xlink:href="#textext-9100f015-1"
             x="70.865997"
             y="117.691"
             id="use935" />
          <use
             height="100%"
             width="100%"
             xlink:href="#textext-9100f015-2"
             x="74.462502"
             y="117.691"
             id="use937" />
          <use
             height="100%"
             width="100%"
             xlink:href="#textext-9100f015-3"
             x="79.995728"
             y="117.691"
             id="use939" />
          <use
             height="100%"
             width="100%"
             xlink:href="#textext-9100f015-4"
             x="85.528954"
             y="117.691"
             id="use941" />
          <use
             height="100%"
             width="100%"
             xlink:href="#textext-9100f015-5"
             x="91.06218"
             y="117.691"
             id="use943" />
        </g>
      </g>
    </g>
    <g
       id="g1425"
       transform="matrix(0.81434481,0,0,0.81434481,13.244995,21.288534)">
      <g
         transform="translate(6.879167)"
         id="g1399">
        <g
           id="g1137"
           style="fill:#000000;fill-opacity:1"
           transform="translate(-119.02128,1.1494146)">
          <use
             id="use1135"
             y="122.174"
             x="70.478996"
             xlink:href="#textext-d004b058-1"
             width="100%"
             height="100%" />
        </g>
        <g
           id="g1141"
           style="fill:#000000;fill-opacity:1"
           transform="translate(-119.02128,1.1494146)">
          <use
             id="use1139"
             y="122.174"
             x="70.867538"
             xlink:href="#textext-d004b058-2"
             width="100%"
             height="100%" />
        </g>
        <g
           id="g1145"
           style="fill:#000000;fill-opacity:1"
           transform="translate(-119.02128,1.1494146)">
          <use
             id="use1143"
             y="122.174"
             x="78.82"
             xlink:href="#textext-d004b058-5"
             width="100%"
             height="100%" />
        </g>
      </g>
      <g
         transform="translate(-114.25875,1.1494146)"
         style="fill:#000000;fill-opacity:1"
         id="g1149">
        <use
           height="100%"
           width="100%"
           xlink:href="#textext-d004b058-11"
           x="89.335999"
           y="108.127"
           id="use1147" />
      </g>
      <g
         transform="translate(-0.48692133)"
         id="g1391">
        <g
           id="g1153"
           style="fill:#000000;fill-opacity:1"
           transform="translate(-119.02128,1.1494146)">
          <use
             id="use1151"
             y="116.097"
             x="101.651"
             xlink:href="#textext-d004b058-6"
             width="100%"
             height="100%" />
        </g>
        <g
           id="g1157"
           style="fill:#000000;fill-opacity:1"
           transform="translate(-119.02128,1.1494146)">
          <use
             id="use1155"
             y="116.097"
             x="106.632"
             xlink:href="#textext-d004b058-3"
             width="100%"
             height="100%" />
        </g>
        <g
           id="g1161"
           style="fill:#000000;fill-opacity:1"
           transform="translate(-119.02128,1.1494146)">
          <use
             id="use1159"
             y="116.097"
             x="109.4"
             xlink:href="#textext-d004b058-7"
             width="100%"
             height="100%" />
        </g>
        <g
           id="g1165"
           style="fill:#000000;fill-opacity:1"
           transform="translate(-119.02128,1.1494146)">
          <use
             id="use1163"
             y="128.052"
             x="101.651"
             xlink:href="#textext-d004b058-8"
             width="100%"
             height="100%" />
        </g>
        <g
           id="g1169"
           style="fill:#000000;fill-opacity:1"
           transform="translate(-119.02128,1.1494146)">
          <use
             id="use1167"
             y="128.052"
             x="106.632"
             xlink:href="#textext-d004b058-3"
             width="100%"
             height="100%" />
        </g>
        <g
           id="g1173"
           style="fill:#000000;fill-opacity:1"
           transform="translate(-119.02128,1.1494146)">
          <use
             id="use1171"
             y="128.052"
             x="109.4"
             xlink:href="#textext-d004b058-9"
             width="100%"
             height="100%" />
        </g>
      </g>
      <g
         transform="translate(-124.84215,1.1494146)"
         style="fill:#000000;fill-opacity:1"
         id="g1177">
        <use
           height="100%"
           width="100%"
           xlink:href="#textext-d004b058-12"
           x="119.362"
           y="108.127"
           id="use1175" />
      </g>
    </g>
    <g
       transform="translate(20.322318,-20.439066)"
       ns0:text="Output"
       ns0:preamble="/home/n03l/.inkscape/preamble.tex"
       id="g1584">
      <defs
         id="defs1567">
        <g
           id="g1565">
          <symbol
             overflow="visible"
             id="textext-53f37dc0-0"
             style="overflow:visible">
            <path
               style="stroke:none"
               d=""
               id="path1550"
               inkscape:connector-curvature="0" />
          </symbol>
          <symbol
             overflow="visible"
             id="textext-53f37dc0-1"
             style="overflow:visible">
            <path
               style="stroke:none"
               d="M 3.703125,-7.03125 C 2.8125,-6.90625 2.0625,-6.625 1.46875,-5.921875 0.875,-5.21875 0.546875,-4.296875 0.546875,-3.375 c 0,1.703125 1.234375,3.578125 3.34375,3.578125 1.953125,0 3.3125,-1.78125 3.3125,-3.609375 0,-1.828125 -1.34375,-3.640625 -3.359375,-3.640625 -0.046875,0 -0.09375,0.015625 -0.140625,0.015625 z m -2.125,3.765625 V -3.4375 c 0,-1.140625 0.234375,-2.453125 1.375,-3.109375 0.28125,-0.15625 0.59375,-0.234375 0.921875,-0.234375 0.84375,0 1.5625,0.59375 1.953125,1.390625 0.265625,0.546875 0.34375,1.234375 0.34375,1.8125 0,1.3125 -0.3125,2.953125 -1.84375,3.46875 -0.140625,0.046875 -0.296875,0.0625 -0.4375,0.0625 -1.4375,0 -2.125,-1.484375 -2.28125,-2.6875 -0.015625,-0.1875 -0.015625,-0.359375 -0.03125,-0.53125 z m 0,0"
               id="path1553"
               inkscape:connector-curvature="0" />
          </symbol>
          <symbol
             overflow="visible"
             id="textext-53f37dc0-2"
             style="overflow:visible">
            <path
               style="stroke:none"
               d="m 0.3125,-4.296875 v 0.3125 h 0.140625 c 0.28125,0 0.578125,0.015625 0.640625,0.3125 0,0.109375 0,0.21875 0,0.328125 v 1.984375 c 0,0.328125 0.015625,0.625 0.1875,0.921875 0.28125,0.421875 0.84375,0.546875 1.3125,0.546875 0.453125,0 0.859375,-0.203125 1.109375,-0.5625 C 3.765625,-0.5625 3.84375,-0.65625 3.875,-0.78125 v 0.875 L 5.328125,-0.015625 V -0.3125 h -0.15625 c -0.328125,0 -0.625,-0.03125 -0.625,-0.484375 V -4.40625 l -1.46875,0.109375 v 0.3125 H 3.21875 c 0.328125,0 0.625,0.03125 0.625,0.5 V -1.6875 c 0,0.734375 -0.375,1.5625 -1.203125,1.5625 -0.5625,0 -0.84375,-0.140625 -0.84375,-1.203125 V -4.40625 Z m 0,0"
               id="path1556"
               inkscape:connector-curvature="0" />
          </symbol>
          <symbol
             overflow="visible"
             id="textext-53f37dc0-3"
             style="overflow:visible">
            <path
               style="stroke:none"
               d="m 1.484375,-6.140625 c 0,0.6875 -0.28125,1.9375 -1.3125,1.9375 v 0.21875 H 1.03125 v 2.5625 c 0,0.328125 0.03125,0.671875 0.1875,0.953125 0.21875,0.40625 0.6875,0.5625 1.125,0.5625 0.8125,0 0.96875,-0.90625 0.96875,-1.546875 V -1.8125 H 3.078125 c 0,0.140625 0,0.296875 0,0.453125 0,0.4375 -0.09375,1.203125 -0.6875,1.203125 -0.5625,0 -0.65625,-0.6875 -0.65625,-1.125 V -3.984375 H 3.15625 v -0.3125 H 1.734375 v -1.84375 z m 0,0"
               id="path1559"
               inkscape:connector-curvature="0" />
          </symbol>
          <symbol
             overflow="visible"
             id="textext-53f37dc0-4"
             style="overflow:visible">
            <path
               style="stroke:none"
               d="m 0.265625,-4.296875 v 0.3125 h 0.1875 c 0.296875,0 0.59375,0.03125 0.59375,0.421875 V 1.21875 C 1.046875,1.578125 0.78125,1.609375 0.5,1.609375 H 0.265625 v 0.3125 h 2.25 v -0.3125 H 2.28125 C 1.984375,1.609375 1.75,1.578125 1.75,1.21875 v -1.734375 c 0.234375,0.421875 0.796875,0.609375 1.21875,0.609375 1.234375,0 2.21875,-1.046875 2.21875,-2.25 0,-1.203125 -0.921875,-2.25 -2.09375,-2.25 -0.546875,0 -1.015625,0.234375 -1.375,0.640625 V -4.40625 Z m 4.078125,2.3125 C 4.296875,-1.25 3.90625,-0.203125 3,-0.125 H 2.9375 C 2.515625,-0.125 2.125,-0.359375 1.890625,-0.71875 1.796875,-0.828125 1.75,-0.921875 1.75,-1.0625 V -2.734375 C 1.75,-2.875 1.734375,-3 1.734375,-3.125 1.734375,-3.65625 2.40625,-4.15625 3,-4.15625 c 1,0 1.359375,1.3125 1.359375,2.015625 0,0.046875 0,0.109375 -0.015625,0.15625 z m 0,0"
               id="path1562"
               inkscape:connector-curvature="0" />
          </symbol>
        </g>
      </defs>
      <g
         id="textext-53f37dc0-5">
        <g
           style="fill:#000000;fill-opacity:1"
           id="g1581">
          <use
             xlink:href="#textext-53f37dc0-1"
             x="70.865997"
             y="117.691"
             id="use1569"
             width="100%"
             height="100%" />
          <use
             xlink:href="#textext-53f37dc0-2"
             x="78.612915"
             y="117.691"
             id="use1571"
             width="100%"
             height="100%" />
          <use
             xlink:href="#textext-53f37dc0-3"
             x="84.146149"
             y="117.691"
             id="use1573"
             width="100%"
             height="100%" />
          <use
             xlink:href="#textext-53f37dc0-4"
             x="88.019608"
             y="117.691"
             id="use1575"
             width="100%"
             height="100%" />
          <use
             xlink:href="#textext-53f37dc0-2"
             x="93.552834"
             y="117.691"
             id="use1577"
             width="100%"
             height="100%" />
          <use
             xlink:href="#textext-53f37dc0-3"
             x="99.08606"
             y="117.691"
             id="use1579"
             width="100%"
             height="100%" />
        </g>
      </g>
    </g>
    <g
       id="g2338"
       transform="translate(-1.987341,6.6629899)">
      <g
         transform="matrix(0.54331134,0,0,0.54331134,52.972493,51.691443)"
         style="fill:#000000;fill-opacity:1"
         id="g1941">
        <use
           height="100%"
           width="100%"
           xlink:href="#textext-2d098f0a-6"
           x="87.055"
           y="116.097"
           id="use1939" />
      </g>
      <g
         transform="matrix(0.54331134,0,0,0.54331134,52.972493,51.691443)"
         style="fill:#000000;fill-opacity:1"
         id="g1945">
        <use
           height="100%"
           width="100%"
           xlink:href="#textext-2d098f0a-12"
           x="92.037003"
           y="116.097"
           id="use1943" />
      </g>
      <g
         transform="matrix(0.54331134,0,0,0.54331134,52.972493,51.691443)"
         style="fill:#000000;fill-opacity:1"
         id="g1949">
        <use
           height="100%"
           width="100%"
           xlink:href="#textext-2d098f0a-7"
           x="94.804001"
           y="116.097"
           id="use1947" />
      </g>
    </g>
    <g
       id="g2355"
       transform="translate(-1.9619541,3.1332906)">
      <g
         transform="matrix(0.54331134,0,0,0.54331134,52.972493,51.691443)"
         style="fill:#000000;fill-opacity:1"
         id="g1965">
        <use
           height="100%"
           width="100%"
           xlink:href="#textext-2d098f0a-6"
           x="84.565002"
           y="140.007"
           id="use1963" />
      </g>
      <g
         transform="matrix(0.54331134,0,0,0.54331134,52.972493,51.691443)"
         style="fill:#000000;fill-opacity:1"
         id="g1969">
        <use
           height="100%"
           width="100%"
           xlink:href="#textext-2d098f0a-12"
           x="89.545998"
           y="140.007"
           id="use1967" />
      </g>
      <g
         transform="matrix(0.54331134,0,0,0.54331134,52.972493,51.691443)"
         style="fill:#000000;fill-opacity:1"
         id="g1975">
        <use
           height="100%"
           width="100%"
           xlink:href="#textext-2d098f0a-6"
           x="92.313004"
           y="140.007"
           id="use1971" />
        <use
           height="100%"
           width="100%"
           xlink:href="#textext-2d098f0a-9"
           x="97.294296"
           y="140.007"
           id="use1973" />
      </g>
    </g>
    <g
       id="g2178"
       transform="matrix(0.55602326,0,0,0.55602326,76.516305,65.488763)"
       ns0:preamble="/home/n03l/.inkscape/preamble.tex"
       ns0:text="0">
      <defs
         id="defs2171">
        <g
           id="g2169">
          <symbol
             id="textext-860014d2-0"
             overflow="visible"
             style="overflow:visible">
            <path
               id="path2163"
               d=""
               style="stroke:none"
               inkscape:connector-curvature="0" />
          </symbol>
          <symbol
             id="textext-860014d2-1"
             overflow="visible"
             style="overflow:visible">
            <path
               id="path2166"
               d="m 2.359375,-6.65625 c -1.9375,0.171875 -1.96875,2.53125 -1.96875,3.5 0,0.9375 0.078125,2.015625 0.703125,2.75 0.328125,0.390625 0.875,0.625 1.375,0.625 0.84375,0 1.515625,-0.546875 1.8125,-1.3125 0.28125,-0.6875 0.296875,-1.453125 0.296875,-2.171875 0,-0.9375 -0.09375,-2.078125 -0.703125,-2.765625 C 3.53125,-6.421875 3,-6.65625 2.5,-6.65625 c -0.0625,0 -0.09375,0 -0.140625,0 z M 1.21875,-2.578125 c 0,-0.09375 0,-0.171875 0,-0.265625 V -3.3125 c 0,-0.484375 0,-0.953125 0.046875,-1.4375 0.03125,-0.375 0.0625,-0.796875 0.28125,-1.125 0.21875,-0.328125 0.5625,-0.5625 0.953125,-0.5625 1.171875,0 1.25,1.46875 1.25,2.453125 v 0.46875 c 0,0.265625 0.015625,0.5625 0.015625,0.859375 0,1.265625 -0.171875,2.640625 -1.265625,2.640625 -1.34375,0 -1.21875,-1.921875 -1.28125,-2.5625 z m 0,0"
               style="stroke:none"
               inkscape:connector-curvature="0" />
          </symbol>
        </g>
      </defs>
      <g
         id="textext-860014d2-2">
        <g
           id="g2175"
           style="fill:#000000;fill-opacity:1">
          <use
             id="use2173"
             y="117.691"
             x="70.865997"
             xlink:href="#textext-860014d2-1"
             width="100%"
             height="100%" />
        </g>
      </g>
    </g>
    <g
       ns0:text="0"
       ns0:preamble="/home/n03l/.inkscape/preamble.tex"
       transform="matrix(0.55602326,0,0,0.55602326,76.516305,46.535545)"
       id="g2683">
      <defs
         id="defs2675">
        <g
           id="g2673">
          <symbol
             overflow="visible"
             id="symbol2667"
             style="overflow:visible">
            <path
               style="stroke:none"
               d=""
               id="path2665"
               inkscape:connector-curvature="0" />
          </symbol>
          <symbol
             overflow="visible"
             id="symbol2671"
             style="overflow:visible">
            <path
               style="stroke:none"
               d="m 2.359375,-6.65625 c -1.9375,0.171875 -1.96875,2.53125 -1.96875,3.5 0,0.9375 0.078125,2.015625 0.703125,2.75 0.328125,0.390625 0.875,0.625 1.375,0.625 0.84375,0 1.515625,-0.546875 1.8125,-1.3125 0.28125,-0.6875 0.296875,-1.453125 0.296875,-2.171875 0,-0.9375 -0.09375,-2.078125 -0.703125,-2.765625 C 3.53125,-6.421875 3,-6.65625 2.5,-6.65625 c -0.0625,0 -0.09375,0 -0.140625,0 z M 1.21875,-2.578125 c 0,-0.09375 0,-0.171875 0,-0.265625 V -3.3125 c 0,-0.484375 0,-0.953125 0.046875,-1.4375 0.03125,-0.375 0.0625,-0.796875 0.28125,-1.125 0.21875,-0.328125 0.5625,-0.5625 0.953125,-0.5625 1.171875,0 1.25,1.46875 1.25,2.453125 v 0.46875 c 0,0.265625 0.015625,0.5625 0.015625,0.859375 0,1.265625 -0.171875,2.640625 -1.265625,2.640625 -1.34375,0 -1.21875,-1.921875 -1.28125,-2.5625 z m 0,0"
               id="path2669"
               inkscape:connector-curvature="0" />
          </symbol>
        </g>
      </defs>
      <g
         id="g2681">
        <g
           style="fill:#000000;fill-opacity:1"
           id="g2679">
          <use
             xlink:href="#textext-860014d2-1"
             x="70.865997"
             y="117.691"
             id="use2677"
             width="100%"
             height="100%" />
        </g>
      </g>
    </g>
    <g
       id="g3167"
       transform="matrix(0.55602326,0,0,0.55602326,76.485897,55.978895)"
       ns0:preamble="/home/n03l/.inkscape/preamble.tex"
       ns0:text="1">
      <defs
         id="defs3160">
        <g
           id="g3158">
          <symbol
             id="textext-980f9f32-0"
             overflow="visible"
             style="overflow:visible">
            <path
               id="path3152"
               d=""
               style="stroke:none"
               inkscape:connector-curvature="0" />
          </symbol>
          <symbol
             id="textext-980f9f32-1"
             overflow="visible"
             style="overflow:visible">
            <path
               id="path3155"
               d="m 0.890625,-6.015625 v 0.3125 c 0.4375,0 0.90625,-0.046875 1.296875,-0.265625 V -0.75 c 0,0.375 -0.375,0.4375 -0.765625,0.4375 -0.171875,0 -0.328125,0 -0.46875,0 v 0.296875 H 4.1875 V -0.3125 c -0.171875,0 -0.34375,0 -0.5,0 -0.390625,0 -0.75,-0.0625 -0.75,-0.4375 V -6.484375 C 2.9375,-6.578125 2.90625,-6.65625 2.796875,-6.65625 2.65625,-6.65625 2.5,-6.453125 2.375,-6.375 1.9375,-6.09375 1.40625,-6.015625 0.890625,-6.015625 Z m 0,0"
               style="stroke:none"
               inkscape:connector-curvature="0" />
          </symbol>
        </g>
      </defs>
      <g
         id="textext-980f9f32-2">
        <g
           id="g3164"
           style="fill:#000000;fill-opacity:1">
          <use
             id="use3162"
             y="117.691"
             x="70.865997"
             xlink:href="#textext-980f9f32-1"
             width="100%"
             height="100%" />
        </g>
      </g>
    </g>
    <g
       ns0:text="Expected"
       ns0:preamble="/home/n03l/.inkscape/preamble.tex"
       transform="matrix(0.49739452,0,0,0.49739452,71.960639,47.518993)"
       id="g3728">
      <defs
         id="defs3705">
        <g
           id="g3703">
          <symbol
             style="overflow:visible"
             overflow="visible"
             id="textext-d10dae18-0">
            <path
               inkscape:connector-curvature="0"
               style="stroke:none"
               d=""
               id="path3679" />
          </symbol>
          <symbol
             style="overflow:visible"
             overflow="visible"
             id="textext-d10dae18-1">
            <path
               inkscape:connector-curvature="0"
               style="stroke:none"
               d="m 0.328125,-6.78125 v 0.296875 c 0.125,0 0.265625,0 0.375,0 0.359375,0 0.65625,0.046875 0.65625,0.4375 V -0.75 c 0,0.375 -0.328125,0.4375 -0.671875,0.4375 -0.125,0 -0.25,0 -0.359375,0 v 0.296875 h 5.75 l 0.40625,-2.5625 h -0.25 C 6.09375,-1.671875 5.96875,-0.671875 4.890625,-0.40625 4.578125,-0.328125 4.25,-0.3125 3.9375,-0.3125 H 2.65625 C 2.46875,-0.3125 2.25,-0.34375 2.25,-0.640625 V -3.375 h 0.90625 c 0.359375,0 0.734375,0.03125 0.9375,0.328125 0.109375,0.21875 0.125,0.484375 0.125,0.734375 v 0.09375 h 0.25 v -2.640625 h -0.25 V -4.75 c 0,0.53125 -0.125,0.96875 -0.703125,1.046875 C 3.3125,-3.6875 3.125,-3.6875 2.9375,-3.6875 H 2.25 V -6.125 c 0,-0.34375 0.203125,-0.359375 0.40625,-0.359375 h 1.203125 c 0.59375,0 1.3125,0 1.703125,0.53125 0.296875,0.40625 0.34375,0.921875 0.40625,1.40625 h 0.25 L 5.9375,-6.78125 Z m 0,0"
               id="path3682" />
          </symbol>
          <symbol
             style="overflow:visible"
             overflow="visible"
             id="textext-d10dae18-2">
            <path
               inkscape:connector-curvature="0"
               style="stroke:none"
               d="m 0.171875,-4.296875 v 0.3125 H 0.375 c 0.515625,0 0.65625,0.203125 0.875,0.5 l 0.9375,1.21875 c 0.046875,0.046875 0.125,0.125 0.125,0.1875 -0.015625,0.046875 -0.09375,0.125 -0.125,0.171875 -0.59375,0.6875 -1.03125,1.59375 -2.0625,1.59375 v 0.296875 H 1.90625 V -0.3125 c -0.1875,0 -0.296875,-0.1875 -0.296875,-0.328125 0,-0.203125 0.15625,-0.34375 0.28125,-0.484375 C 2,-1.28125 2.125,-1.4375 2.25,-1.578125 2.328125,-1.6875 2.421875,-1.78125 2.484375,-1.890625 2.734375,-1.609375 2.9375,-1.296875 3.15625,-1 l 0.1875,0.25 c 0.046875,0.046875 0.109375,0.109375 0.109375,0.1875 0,0.15625 -0.21875,0.25 -0.359375,0.25 v 0.296875 H 5.140625 V -0.3125 H 4.96875 c -0.171875,0 -0.359375,-0.015625 -0.515625,-0.09375 C 4.28125,-0.5 4.15625,-0.6875 4.03125,-0.84375 c -0.328125,-0.4375 -0.671875,-0.875 -1,-1.3125 L 2.9375,-2.265625 c -0.015625,-0.03125 -0.03125,-0.0625 -0.046875,-0.09375 0,-0.046875 0.0625,-0.109375 0.09375,-0.15625 l 0.3125,-0.375 c 0.1875,-0.21875 0.34375,-0.453125 0.546875,-0.65625 0.3125,-0.28125 0.703125,-0.4375 1.125,-0.4375 v -0.3125 H 3.1875 v 0.3125 c 0.203125,0.046875 0.28125,0.140625 0.28125,0.3125 0,0.28125 -0.3125,0.546875 -0.484375,0.765625 -0.078125,0.09375 -0.21875,0.296875 -0.265625,0.296875 -0.0625,0 -0.203125,-0.21875 -0.296875,-0.328125 -0.21875,-0.28125 -0.5625,-0.640625 -0.5625,-0.8125 0,-0.140625 0.21875,-0.234375 0.34375,-0.234375 v -0.3125 z m 0,0"
               id="path3685" />
          </symbol>
          <symbol
             style="overflow:visible"
             overflow="visible"
             id="textext-d10dae18-3">
            <path
               inkscape:connector-curvature="0"
               style="stroke:none"
               d="m 0.265625,-4.296875 v 0.3125 h 0.1875 c 0.296875,0 0.59375,0.03125 0.59375,0.421875 V 1.21875 C 1.046875,1.578125 0.78125,1.609375 0.5,1.609375 H 0.265625 v 0.3125 h 2.25 v -0.3125 H 2.28125 C 1.984375,1.609375 1.75,1.578125 1.75,1.21875 v -1.734375 c 0.234375,0.421875 0.796875,0.609375 1.21875,0.609375 1.234375,0 2.21875,-1.046875 2.21875,-2.25 0,-1.203125 -0.921875,-2.25 -2.09375,-2.25 -0.546875,0 -1.015625,0.234375 -1.375,0.640625 V -4.40625 Z m 4.078125,2.3125 C 4.296875,-1.25 3.90625,-0.203125 3,-0.125 H 2.9375 C 2.515625,-0.125 2.125,-0.359375 1.890625,-0.71875 1.796875,-0.828125 1.75,-0.921875 1.75,-1.0625 V -2.734375 C 1.75,-2.875 1.734375,-3 1.734375,-3.125 1.734375,-3.65625 2.40625,-4.15625 3,-4.15625 c 1,0 1.359375,1.3125 1.359375,2.015625 0,0.046875 0,0.109375 -0.015625,0.15625 z m 0,0"
               id="path3688" />
          </symbol>
          <symbol
             style="overflow:visible"
             overflow="visible"
             id="textext-d10dae18-4">
            <path
               inkscape:connector-curvature="0"
               style="stroke:none"
               d="m 1.109375,-2.3125 h 2.875 c 0.109375,0 0.15625,-0.0625 0.15625,-0.1875 0,-1.046875 -0.640625,-1.96875 -1.765625,-1.96875 -1.21875,0 -2.09375,1.09375 -2.09375,2.28125 0,0.90625 0.5,1.734375 1.390625,2.125 0.21875,0.109375 0.484375,0.15625 0.734375,0.15625 H 2.4375 c 0.765625,0 1.40625,-0.421875 1.671875,-1.1875 C 4.125,-1.125 4.125,-1.171875 4.125,-1.203125 4.125,-1.265625 4.09375,-1.3125 4.015625,-1.3125 3.875,-1.3125 3.8125,-0.984375 3.75,-0.875 3.5,-0.4375 3.015625,-0.15625 2.5,-0.15625 c -0.359375,0 -0.6875,-0.203125 -0.953125,-0.46875 -0.40625,-0.46875 -0.4375,-1.109375 -0.4375,-1.6875 z M 1.125,-2.515625 C 1.125,-3.296875 1.53125,-4.25 2.359375,-4.25 H 2.40625 c 0.96875,0.09375 0.96875,1.125 1.0625,1.734375 z m 0,0"
               id="path3691" />
          </symbol>
          <symbol
             style="overflow:visible"
             overflow="visible"
             id="textext-d10dae18-5">
            <path
               inkscape:connector-curvature="0"
               style="stroke:none"
               d="m 3.578125,-3.859375 c -0.265625,0.015625 -0.46875,0.1875 -0.46875,0.453125 0,0.28125 0.1875,0.46875 0.453125,0.46875 0.3125,0 0.46875,-0.21875 0.46875,-0.5 V -3.5 C 3.921875,-4.234375 3.078125,-4.46875 2.5,-4.46875 c -1.21875,0 -2.171875,1.0625 -2.171875,2.3125 0,1.125 0.875,2.25 2.171875,2.25 0.65625,0 1.296875,-0.359375 1.5625,-1.046875 0.03125,-0.0625 0.078125,-0.15625 0.078125,-0.21875 0,-0.078125 -0.046875,-0.125 -0.125,-0.125 -0.140625,0 -0.234375,0.375 -0.3125,0.515625 -0.234375,0.375 -0.640625,0.625 -1.09375,0.625 -1.0625,0 -1.390625,-1.0625 -1.4375,-1.84375 v -0.125 c 0,-0.796875 0.1875,-1.984375 1.28125,-2.09375 H 2.53125 c 0.375,0 0.765625,0.109375 1.046875,0.359375 z m 0,0"
               id="path3694" />
          </symbol>
          <symbol
             style="overflow:visible"
             overflow="visible"
             id="textext-d10dae18-6">
            <path
               inkscape:connector-curvature="0"
               style="stroke:none"
               d="m 1.484375,-6.140625 c 0,0.6875 -0.28125,1.9375 -1.3125,1.9375 v 0.21875 H 1.03125 v 2.5625 c 0,0.328125 0.03125,0.671875 0.1875,0.953125 0.21875,0.40625 0.6875,0.5625 1.125,0.5625 0.8125,0 0.96875,-0.90625 0.96875,-1.546875 V -1.8125 H 3.078125 c 0,0.140625 0,0.296875 0,0.453125 0,0.4375 -0.09375,1.203125 -0.6875,1.203125 -0.5625,0 -0.65625,-0.6875 -0.65625,-1.125 V -3.984375 H 3.15625 v -0.3125 H 1.734375 v -1.84375 z m 0,0"
               id="path3697" />
          </symbol>
          <symbol
             style="overflow:visible"
             overflow="visible"
             id="textext-d10dae18-7">
            <path
               inkscape:connector-curvature="0"
               style="stroke:none"
               d="m 3.03125,-6.8125 v 0.296875 H 3.1875 c 0.34375,0 0.625,0.046875 0.625,0.625 l -0.015625,2.09375 C 3.5625,-4.203125 2.984375,-4.40625 2.53125,-4.40625 c -1.21875,0 -2.203125,1.0625 -2.203125,2.265625 0,1.0625 0.8125,2.234375 2.140625,2.234375 0.515625,0 0.984375,-0.25 1.3125,-0.640625 V 0.09375 L 5.25,-0.015625 V -0.3125 H 5.078125 c -0.296875,0 -0.609375,-0.03125 -0.609375,-0.5 V -6.921875 Z M 1.171875,-1.90625 V -2.046875 C 1.171875,-2.796875 1.25,-3.53125 1.9375,-4 2.140625,-4.109375 2.375,-4.1875 2.609375,-4.1875 c 0.484375,0 1.171875,0.40625 1.171875,1.03125 0,0.125 0,0.25 0,0.390625 v 1.65625 c 0,0.125 -0.046875,0.21875 -0.125,0.3125 C 3.40625,-0.40625 2.96875,-0.125 2.5,-0.125 1.78125,-0.125 1.3125,-0.78125 1.203125,-1.46875 1.1875,-1.609375 1.1875,-1.765625 1.171875,-1.90625 Z m 0,0"
               id="path3700" />
          </symbol>
        </g>
      </defs>
      <g
         id="textext-d10dae18-8">
        <g
           style="fill:#000000;fill-opacity:1"
           id="g3713">
          <use
             height="100%"
             width="100%"
             xlink:href="#textext-d10dae18-1"
             x="70.865997"
             y="117.691"
             id="use3707" />
          <use
             height="100%"
             width="100%"
             xlink:href="#textext-d10dae18-2"
             x="77.644554"
             y="117.691"
             id="use3709" />
          <use
             height="100%"
             width="100%"
             xlink:href="#textext-d10dae18-3"
             x="82.901817"
             y="117.691"
             id="use3711" />
        </g>
        <g
           style="fill:#000000;fill-opacity:1"
           id="g3725">
          <use
             height="100%"
             width="100%"
             xlink:href="#textext-d10dae18-4"
             x="88.713997"
             y="117.691"
             id="use3715" />
          <use
             height="100%"
             width="100%"
             xlink:href="#textext-d10dae18-5"
             x="93.140381"
             y="117.691"
             id="use3717" />
          <use
             height="100%"
             width="100%"
             xlink:href="#textext-d10dae18-6"
             x="97.566765"
             y="117.691"
             id="use3719" />
          <use
             height="100%"
             width="100%"
             xlink:href="#textext-d10dae18-4"
             x="101.44022"
             y="117.691"
             id="use3721" />
          <use
             height="100%"
             width="100%"
             xlink:href="#textext-d10dae18-7"
             x="105.86661"
             y="117.691"
             id="use3723" />
        </g>
      </g>
    </g>
    <path
       inkscape:connector-curvature="0"
       id="path4005"
       d="m 96.234262,132.09252 0.266883,0.99601 h 10.897525 l 0.26688,0.99601 0.26688,-0.99601 h 12.91038 l 0.26688,-0.99601"
       style="fill:none;stroke:#000000;stroke-width:0.26499999;stroke-linecap:round;stroke-linejoin:round;stroke-miterlimit:4;stroke-dasharray:none;stroke-opacity:1" />
    <g
       id="g4296"
       ns0:preamble="/home/n03l/.inkscape/preamble.tex"
       ns0:text="MSE"
       transform="matrix(0.31223227,0,0,0.31223227,82.127008,100.19462)">
      <defs
         id="defs4285">
        <g
           id="g4283">
          <symbol
             id="textext-f9d964ac-0"
             overflow="visible"
             style="overflow:visible">
            <path
               id="path4271"
               d=""
               style="stroke:none"
               inkscape:connector-curvature="0" />
          </symbol>
          <symbol
             id="textext-f9d964ac-1"
             overflow="visible"
             style="overflow:visible">
            <path
               id="path4274"
               d="m 0.375,-6.8125 v 0.296875 c 0.125,0 0.25,0 0.375,0 0.359375,0 0.640625,0.046875 0.640625,0.4375 v 5.046875 c 0,0.65625 -0.59375,0.71875 -1.015625,0.71875 v 0.296875 H 2.703125 V -0.3125 c -0.453125,0 -1.03125,-0.0625 -1.03125,-0.75 0,-0.09375 0,-0.1875 0,-0.28125 L 1.6875,-6.453125 c 0.046875,0.21875 0.140625,0.40625 0.21875,0.609375 0.703125,1.84375 1.421875,3.6875 2.140625,5.5 0.046875,0.109375 0.09375,0.328125 0.234375,0.328125 H 4.296875 C 4.453125,-0.03125 4.484375,-0.265625 4.53125,-0.375 5.25,-2.25 6,-4.125 6.703125,-6 6.78125,-6.171875 6.859375,-6.34375 6.90625,-6.515625 l 0.015625,5.75 c 0,0.390625 -0.328125,0.453125 -0.640625,0.453125 -0.140625,0 -0.265625,0 -0.390625,0 v 0.296875 H 8.75 V -0.3125 c -0.109375,0 -0.25,0 -0.359375,0 -0.359375,0 -0.671875,-0.046875 -0.671875,-0.4375 v -5.328125 c 0,-0.375 0.328125,-0.4375 0.671875,-0.4375 0.125,0 0.25,0 0.359375,0 V -6.8125 H 7.015625 L 6.828125,-6.78125 6.734375,-6.625 4.5625,-1.015625 2.390625,-6.625 2.296875,-6.78125 2.109375,-6.8125 Z m 0,0"
               style="stroke:none"
               inkscape:connector-curvature="0" />
          </symbol>
          <symbol
             id="textext-f9d964ac-2"
             overflow="visible"
             style="overflow:visible">
            <path
               id="path4277"
               d="m 1.15625,-0.484375 c 0.625,0.484375 1.109375,0.6875 1.890625,0.6875 1.1875,0 1.921875,-1.0625 1.921875,-2.078125 C 4.96875,-2.703125 4.5,-3.46875 3.703125,-3.796875 3.09375,-4.046875 2.34375,-4.03125 1.8125,-4.34375 c -0.390625,-0.25 -0.625,-0.6875 -0.625,-1.125 0,-0.78125 0.671875,-1.296875 1.375,-1.296875 0.984375,0 1.671875,0.796875 1.828125,1.796875 0.03125,0.140625 0,0.40625 0.1875,0.40625 0.109375,0 0.109375,-0.078125 0.109375,-0.171875 v -2.15625 c 0,-0.078125 -0.015625,-0.140625 -0.09375,-0.140625 -0.140625,0 -0.25,0.265625 -0.34375,0.40625 -0.046875,0.078125 -0.125,0.1875 -0.15625,0.28125 -0.421875,-0.40625 -0.890625,-0.6875 -1.546875,-0.6875 -0.984375,0 -2,0.671875 -2,1.9375 0,1.03125 0.765625,1.71875 1.734375,1.921875 C 2.5,-3.125 2.6875,-3.0625 2.90625,-3.015625 3.453125,-2.875 4.015625,-2.734375 4.25,-2.03125 c 0.0625,0.15625 0.09375,0.3125 0.09375,0.46875 0,0.75 -0.515625,1.46875 -1.359375,1.46875 C 2,-0.09375 1.03125,-0.625 0.828125,-1.78125 0.8125,-1.859375 0.8125,-1.96875 0.796875,-2.046875 V -2.125 c 0,-0.09375 -0.046875,-0.140625 -0.125,-0.140625 -0.109375,0 -0.125,0.078125 -0.125,0.140625 v 2.1875 c 0,0.078125 0.015625,0.140625 0.09375,0.140625 0.15625,0 0.265625,-0.265625 0.34375,-0.40625 0.0625,-0.09375 0.125,-0.1875 0.171875,-0.28125 z m 0,0"
               style="stroke:none"
               inkscape:connector-curvature="0" />
          </symbol>
          <symbol
             id="textext-f9d964ac-3"
             overflow="visible"
             style="overflow:visible">
            <path
               id="path4280"
               d="m 0.328125,-6.78125 v 0.296875 c 0.125,0 0.265625,0 0.375,0 0.359375,0 0.65625,0.046875 0.65625,0.4375 V -0.75 c 0,0.375 -0.328125,0.4375 -0.671875,0.4375 -0.125,0 -0.25,0 -0.359375,0 v 0.296875 h 5.75 l 0.40625,-2.5625 h -0.25 C 6.09375,-1.671875 5.96875,-0.671875 4.890625,-0.40625 4.578125,-0.328125 4.25,-0.3125 3.9375,-0.3125 H 2.65625 C 2.46875,-0.3125 2.25,-0.34375 2.25,-0.640625 V -3.375 h 0.90625 c 0.359375,0 0.734375,0.03125 0.9375,0.328125 0.109375,0.21875 0.125,0.484375 0.125,0.734375 v 0.09375 h 0.25 v -2.640625 h -0.25 V -4.75 c 0,0.53125 -0.125,0.96875 -0.703125,1.046875 C 3.3125,-3.6875 3.125,-3.6875 2.9375,-3.6875 H 2.25 V -6.125 c 0,-0.34375 0.203125,-0.359375 0.40625,-0.359375 h 1.203125 c 0.59375,0 1.3125,0 1.703125,0.53125 0.296875,0.40625 0.34375,0.921875 0.40625,1.40625 h 0.25 L 5.9375,-6.78125 Z m 0,0"
               style="stroke:none"
               inkscape:connector-curvature="0" />
          </symbol>
        </g>
      </defs>
      <g
         id="textext-f9d964ac-4">
        <g
           id="g4293"
           style="fill:#000000;fill-opacity:1">
          <use
             id="use4287"
             y="117.691"
             x="70.865997"
             xlink:href="#textext-f9d964ac-1"
             width="100%"
             height="100%" />
          <use
             id="use4289"
             y="117.691"
             x="79.995728"
             xlink:href="#textext-f9d964ac-2"
             width="100%"
             height="100%" />
          <use
             id="use4291"
             y="117.691"
             x="85.528954"
             xlink:href="#textext-f9d964ac-3"
             width="100%"
             height="100%" />
        </g>
      </g>
    </g>
    <g
       transform="translate(-1.8812255,-9.293175)"
       id="g1160">
      <g
         id="g1150"
         style="fill:#000000;fill-opacity:1"
         transform="matrix(0.54331134,0,0,0.54331134,52.972493,51.691443)">
        <use
           id="use1148"
           y="128.052"
           x="87.055"
           xlink:href="#textext-2d098f0a-6"
           width="100%"
           height="100%" />
      </g>
      <g
         id="g1154"
         style="fill:#000000;fill-opacity:1"
         transform="matrix(0.54331134,0,0,0.54331134,52.972493,51.691443)">
        <use
           id="use1152"
           y="128.052"
           x="92.037003"
           xlink:href="#textext-2d098f0a-12"
           width="100%"
           height="100%" />
      </g>
      <g
         id="g1158"
         style="fill:#000000;fill-opacity:1"
         transform="matrix(0.54331134,0,0,0.54331134,52.972493,51.691443)">
        <use
           id="use1156"
           y="128.052"
           x="94.804001"
           xlink:href="#textext-2d098f0a-8"
           width="100%"
           height="100%" />
      </g>
    </g>
    <g
       id="g1506"
       transform="matrix(0.52162022,0,0,0.52162022,58.752976,83.37182)"
       ns0:preamble="/home/n03l/.inkscape/preamble.tex"
       ns0:text="$\\text{Err}=0.0075$">
      <defs
         id="defs1473">
        <g
           id="g1471">
          <symbol
             id="textext-35efcf9c-0"
             overflow="visible"
             style="overflow:visible">
            <path
               id="path1441"
               d=""
               style="stroke:none"
               inkscape:connector-curvature="0" />
          </symbol>
          <symbol
             id="textext-35efcf9c-1"
             overflow="visible"
             style="overflow:visible">
            <path
               id="path1444"
               d="m 0.328125,-6.78125 v 0.296875 c 0.125,0 0.265625,0 0.375,0 0.359375,0 0.65625,0.046875 0.65625,0.4375 V -0.75 c 0,0.375 -0.328125,0.4375 -0.671875,0.4375 -0.125,0 -0.25,0 -0.359375,0 v 0.296875 h 5.75 l 0.40625,-2.5625 h -0.25 C 6.09375,-1.671875 5.96875,-0.671875 4.890625,-0.40625 4.578125,-0.328125 4.25,-0.3125 3.9375,-0.3125 H 2.65625 C 2.46875,-0.3125 2.25,-0.34375 2.25,-0.640625 V -3.375 h 0.90625 c 0.359375,0 0.734375,0.03125 0.9375,0.328125 0.109375,0.21875 0.125,0.484375 0.125,0.734375 v 0.09375 h 0.25 v -2.640625 h -0.25 V -4.75 c 0,0.53125 -0.125,0.96875 -0.703125,1.046875 C 3.3125,-3.6875 3.125,-3.6875 2.9375,-3.6875 H 2.25 V -6.125 c 0,-0.34375 0.203125,-0.359375 0.40625,-0.359375 h 1.203125 c 0.59375,0 1.3125,0 1.703125,0.53125 0.296875,0.40625 0.34375,0.921875 0.40625,1.40625 h 0.25 L 5.9375,-6.78125 Z m 0,0"
               style="stroke:none"
               inkscape:connector-curvature="0" />
          </symbol>
          <symbol
             id="textext-35efcf9c-2"
             overflow="visible"
             style="overflow:visible">
            <path
               id="path1447"
               d="m 0.265625,-4.296875 v 0.3125 h 0.15625 c 0.328125,0 0.625,0.03125 0.625,0.5 v 2.75 c 0,0.40625 -0.28125,0.421875 -0.71875,0.421875 h -0.0625 v 0.296875 H 2.6875 V -0.3125 c -0.125,0 -0.265625,0 -0.390625,0 -0.3125,0 -0.578125,-0.046875 -0.578125,-0.421875 v -1.3125 c 0,-0.859375 0.1875,-2.140625 1.171875,-2.140625 0.046875,0 0.0625,0 0.109375,0.015625 -0.15625,0.0625 -0.234375,0.21875 -0.234375,0.390625 0,0.21875 0.15625,0.375 0.390625,0.421875 0.28125,0 0.46875,-0.171875 0.46875,-0.421875 0,-0.40625 -0.375,-0.625 -0.734375,-0.625 -0.59375,0 -1.109375,0.53125 -1.21875,1.0625 v -1.0625 z m 0,0"
               style="stroke:none"
               inkscape:connector-curvature="0" />
          </symbol>
          <symbol
             id="textext-35efcf9c-3"
             overflow="visible"
             style="overflow:visible">
            <path
               id="path1450"
               d=""
               style="stroke:none"
               inkscape:connector-curvature="0" />
          </symbol>
          <symbol
             id="textext-35efcf9c-4"
             overflow="visible"
             style="overflow:visible">
            <path
               id="path1453"
               d="m 6.84375,-3.265625 c 0.15625,0 0.34375,0 0.34375,-0.1875 C 7.1875,-3.65625 7,-3.65625 6.859375,-3.65625 h -5.96875 c -0.140625,0 -0.328125,0 -0.328125,0.203125 0,0.1875 0.1875,0.1875 0.328125,0.1875 z m 0.015625,1.9375 c 0.140625,0 0.328125,0 0.328125,-0.203125 0,-0.1875 -0.1875,-0.1875 -0.34375,-0.1875 H 0.890625 c -0.140625,0 -0.328125,0 -0.328125,0.1875 0,0.203125 0.1875,0.203125 0.328125,0.203125 z m 0,0"
               style="stroke:none"
               inkscape:connector-curvature="0" />
          </symbol>
          <symbol
             id="textext-35efcf9c-5"
             overflow="visible"
             style="overflow:visible">
            <path
               id="path1456"
               d="m 4.578125,-3.1875 c 0,-0.796875 -0.046875,-1.59375 -0.390625,-2.328125 -0.453125,-0.96875 -1.28125,-1.125 -1.6875,-1.125 -0.609375,0 -1.328125,0.265625 -1.75,1.1875 -0.3125,0.6875 -0.359375,1.46875 -0.359375,2.265625 0,0.75 0.03125,1.640625 0.453125,2.40625 0.421875,0.796875 1.15625,1 1.640625,1 0.53125,0 1.296875,-0.203125 1.734375,-1.15625 0.3125,-0.6875 0.359375,-1.46875 0.359375,-2.25 z M 2.484375,0 C 2.09375,0 1.5,-0.25 1.328125,-1.203125 1.21875,-1.796875 1.21875,-2.71875 1.21875,-3.3125 c 0,-0.640625 0,-1.296875 0.078125,-1.828125 0.1875,-1.1875 0.9375,-1.28125 1.1875,-1.28125 0.328125,0 0.984375,0.1875 1.171875,1.171875 0.109375,0.5625 0.109375,1.3125 0.109375,1.9375 0,0.75 0,1.421875 -0.109375,2.0625 C 3.5,-0.296875 2.9375,0 2.484375,0 Z m 0,0"
               style="stroke:none"
               inkscape:connector-curvature="0" />
          </symbol>
          <symbol
             id="textext-35efcf9c-6"
             overflow="visible"
             style="overflow:visible">
            <path
               id="path1459"
               d="m 4.75,-6.078125 c 0.078125,-0.109375 0.078125,-0.125 0.078125,-0.34375 H 2.40625 c -1.203125,0 -1.234375,-0.125 -1.265625,-0.3125 h -0.25 L 0.5625,-4.6875 h 0.25 c 0.03125,-0.15625 0.109375,-0.78125 0.25,-0.90625 0.0625,-0.0625 0.84375,-0.0625 0.96875,-0.0625 h 2.0625 C 3.984375,-5.5 3.203125,-4.40625 2.984375,-4.078125 2.078125,-2.734375 1.75,-1.34375 1.75,-0.328125 c 0,0.09375 0,0.546875 0.46875,0.546875 0.453125,0 0.453125,-0.453125 0.453125,-0.546875 V -0.84375 c 0,-0.546875 0.03125,-1.09375 0.109375,-1.625 0.046875,-0.234375 0.171875,-1.09375 0.625,-1.703125 z m 0,0"
               style="stroke:none"
               inkscape:connector-curvature="0" />
          </symbol>
          <symbol
             id="textext-35efcf9c-7"
             overflow="visible"
             style="overflow:visible">
            <path
               id="path1462"
               d="m 4.46875,-2 c 0,-1.1875 -0.8125,-2.1875 -1.890625,-2.1875 -0.46875,0 -0.90625,0.15625 -1.265625,0.515625 V -5.625 c 0.203125,0.0625 0.53125,0.125 0.84375,0.125 1.234375,0 1.9375,-0.90625 1.9375,-1.03125 0,-0.0625 -0.03125,-0.109375 -0.109375,-0.109375 0,0 -0.03125,0 -0.078125,0.03125 C 3.703125,-6.515625 3.21875,-6.3125 2.546875,-6.3125 2.15625,-6.3125 1.6875,-6.390625 1.21875,-6.59375 1.140625,-6.625 1.125,-6.625 1.109375,-6.625 1,-6.625 1,-6.546875 1,-6.390625 V -3.4375 c 0,0.171875 0,0.25 0.140625,0.25 0.078125,0 0.09375,-0.015625 0.140625,-0.078125 C 1.390625,-3.421875 1.75,-3.96875 2.5625,-3.96875 c 0.515625,0 0.765625,0.453125 0.84375,0.640625 0.15625,0.375 0.1875,0.75 0.1875,1.25 0,0.359375 0,0.953125 -0.25,1.375 C 3.109375,-0.3125 2.734375,-0.0625 2.28125,-0.0625 c -0.71875,0 -1.296875,-0.53125 -1.46875,-1.109375 0.03125,0 0.0625,0.015625 0.171875,0.015625 0.328125,0 0.5,-0.25 0.5,-0.484375 0,-0.25 -0.171875,-0.5 -0.5,-0.5 C 0.84375,-2.140625 0.5,-2.0625 0.5,-1.609375 0.5,-0.75 1.1875,0.21875 2.296875,0.21875 3.453125,0.21875 4.46875,-0.734375 4.46875,-2 Z m 0,0"
               style="stroke:none"
               inkscape:connector-curvature="0" />
          </symbol>
          <symbol
             id="textext-35efcf9c-8"
             overflow="visible"
             style="overflow:visible">
            <path
               id="path1465"
               d=""
               style="stroke:none"
               inkscape:connector-curvature="0" />
          </symbol>
          <symbol
             id="textext-35efcf9c-9"
             overflow="visible"
             style="overflow:visible">
            <path
               id="path1468"
               d="m 1.90625,-0.53125 c 0,-0.28125 -0.234375,-0.53125 -0.515625,-0.53125 -0.296875,0 -0.53125,0.25 -0.53125,0.53125 C 0.859375,-0.234375 1.09375,0 1.390625,0 1.671875,0 1.90625,-0.234375 1.90625,-0.53125 Z m 0,0"
               style="stroke:none"
               inkscape:connector-curvature="0" />
          </symbol>
        </g>
      </defs>
      <g
         id="textext-35efcf9c-10">
        <g
           id="g1481"
           style="fill:#000000;fill-opacity:1">
          <use
             id="use1475"
             y="117.691"
             x="70.865997"
             xlink:href="#textext-35efcf9c-1"
             width="100%"
             height="100%" />
          <use
             id="use1477"
             y="117.691"
             x="77.644554"
             xlink:href="#textext-35efcf9c-2"
             width="100%"
             height="100%" />
          <use
             id="use1479"
             y="117.691"
             x="81.545906"
             xlink:href="#textext-35efcf9c-2"
             width="100%"
             height="100%" />
        </g>
        <g
           id="g1485"
           style="fill:#000000;fill-opacity:1">
          <use
             id="use1483"
             y="117.691"
             x="88.213997"
             xlink:href="#textext-35efcf9c-4"
             width="100%"
             height="100%" />
        </g>
        <g
           id="g1489"
           style="fill:#000000;fill-opacity:1">
          <use
             id="use1487"
             y="117.691"
             x="98.732513"
             xlink:href="#textext-35efcf9c-5"
             width="100%"
             height="100%" />
        </g>
        <g
           id="g1493"
           style="fill:#000000;fill-opacity:1">
          <use
             id="use1491"
             y="117.691"
             x="103.712"
             xlink:href="#textext-35efcf9c-9"
             width="100%"
             height="100%" />
        </g>
        <g
           id="g1503"
           style="fill:#000000;fill-opacity:1">
          <use
             id="use1495"
             y="117.691"
             x="106.479"
             xlink:href="#textext-35efcf9c-5"
             width="100%"
             height="100%" />
          <use
             id="use1497"
             y="117.691"
             x="111.4603"
             xlink:href="#textext-35efcf9c-5"
             width="100%"
             height="100%" />
          <use
             id="use1499"
             y="117.691"
             x="116.4416"
             xlink:href="#textext-35efcf9c-6"
             width="100%"
             height="100%" />
          <use
             id="use1501"
             y="117.691"
             x="121.4229"
             xlink:href="#textext-35efcf9c-7"
             width="100%"
             height="100%" />
        </g>
      </g>
    </g>
  </g>
</svg>
